<svg width="89" height="605" viewBox="0 0 89 605" fill="none" xmlns="http://www.w3.org/2000/svg">
<circle cx="44.5" cy="44.5" r="44.5" fill="#1651BE"/>
<circle cx="44.5" cy="216.5" r="44.5" fill="#1651BE"/>
<circle cx="44.5" cy="388.5" r="44.5" fill="#1651BE"/>
<circle cx="44.5" cy="560.5" r="44.5" fill="#1651BE"/>
<path d="M45 52V605" stroke="#1651BE" stroke-width="6"/>
<path d="M46.6355 33.27H50.9375V60H44.5475V40.74L36.8795 46.23V40.272L46.6355 33.27Z" fill="white"/>
<path d="M54.8393 226.014V231H35.0753V227.724L43.6973 218.472C44.9693 217.116 45.8573 215.988 46.3613 215.088C46.8653 214.188 47.1173 213.324 47.1173 212.496C47.1173 211.272 46.6973 210.372 45.8573 209.796C45.0293 209.22 43.6553 208.932 41.7353 208.932C40.5233 208.932 39.2933 209.04 38.0453 209.256C36.8093 209.472 35.7113 209.754 34.7513 210.102V205.098C35.6753 204.786 36.8333 204.528 38.2253 204.324C39.6173 204.12 40.9433 204.018 42.2033 204.018C46.0313 204.018 48.8513 204.654 50.6633 205.926C52.4753 207.198 53.3813 209.154 53.3813 211.794C53.3813 213.258 53.0453 214.662 52.3733 216.006C51.7133 217.338 50.5793 218.838 48.9713 220.506L43.6793 226.014H54.8393Z" fill="white"/>
<path d="M49.2069 389.212C50.9709 389.56 52.3329 390.262 53.2929 391.318C54.2529 392.362 54.7329 393.748 54.7329 395.476C54.7329 397.972 53.7849 399.91 51.8889 401.29C49.9929 402.658 47.0469 403.342 43.0509 403.342C40.2309 403.342 37.5429 403 34.9869 402.316V397.78C36.1869 398.104 37.4589 398.362 38.8029 398.554C40.1469 398.746 41.4549 398.842 42.7269 398.842C44.8509 398.842 46.3989 398.53 47.3709 397.906C48.3429 397.27 48.8289 396.34 48.8289 395.116C48.8289 393.952 48.3909 393.082 47.5149 392.506C46.6389 391.93 45.1809 391.642 43.1409 391.642H38.2269V387.124H41.8989C43.9269 387.124 45.3969 386.848 46.3089 386.296C47.2329 385.732 47.6949 384.898 47.6949 383.794C47.6949 382.738 47.2689 381.928 46.4169 381.364C45.5649 380.8 44.2689 380.518 42.5289 380.518C41.3889 380.518 40.2069 380.614 38.9829 380.806C37.7709 380.986 36.6429 381.25 35.5989 381.598V377.062C36.5949 376.75 37.7709 376.498 39.1269 376.306C40.4949 376.114 41.8149 376.018 43.0869 376.018C46.6269 376.018 49.2909 376.654 51.0789 377.926C52.8789 379.186 53.7789 380.986 53.7789 383.326C53.7789 384.754 53.3709 385.984 52.5549 387.016C51.7509 388.036 50.6349 388.768 49.2069 389.212Z" fill="white"/>
<path d="M57.1335 564.812V569.708H53.3535V575H47.5935V569.708H32.9235V566.324L43.2375 548.36H49.3935L39.9975 564.812H47.5935L48.1875 557.36H53.3535V564.812H57.1335Z" fill="white"/>
</svg>
