<svg width="390" height="844" viewBox="0 0 390 844" fill="none" xmlns="http://www.w3.org/2000/svg">
<g clip-path="url(#clip0_5_9)">
<rect width="390" height="844" fill="white"/>
<rect x="11" y="127" width="155" height="18" rx="9" fill="#D9D9D9"/>
<rect x="11" y="378" width="155" height="18" rx="9" fill="#D9D9D9"/>
<g clip-path="url(#clip1_5_9)">
<rect x="46" y="32" width="228" height="38" rx="19" stroke="black" stroke-width="2"/>
<circle cx="315" cy="51" r="19" fill="black" stroke="black" stroke-width="2"/>
</g>
<rect x="-29" y="162" width="319" height="185" rx="10" fill="#D9D9D9"/>
<mask id="path-6-inside-1_5_9" fill="white">
<path d="M252.889 186.111C255.037 183.963 258.519 183.963 260.667 186.111L261.778 187.222L263.111 185.889C265.259 183.741 268.741 183.741 270.889 185.889C273.037 188.037 273.037 191.52 270.889 193.667L262.758 201.799C262.665 201.891 262.559 201.96 262.447 202.009L262.435 202.021C262.045 202.411 261.411 202.411 261.021 202.021L252.889 193.889C250.741 191.741 250.741 188.259 252.889 186.111Z"/>
</mask>
<path d="M252.889 186.111L251.475 184.697L252.889 186.111ZM260.667 186.111L262.081 184.697L260.667 186.111ZM261.778 187.222L260.364 188.636L261.778 190.05L263.193 188.636L261.778 187.222ZM263.111 185.889L261.697 184.475L263.111 185.889ZM270.889 185.889L272.304 184.475L272.303 184.475L270.889 185.889ZM270.889 193.667L269.475 192.253L270.889 193.667ZM262.758 201.799L264.172 203.213L264.172 203.213L262.758 201.799ZM262.447 202.009L261.654 200.173L261.303 200.325L261.033 200.595L262.447 202.009ZM252.889 193.889L251.475 195.303L251.475 195.303L252.889 193.889ZM252.889 186.111L254.303 187.525C255.67 186.158 257.886 186.158 259.253 187.525L260.667 186.111L262.081 184.697C259.153 181.768 254.404 181.768 251.475 184.697L252.889 186.111ZM260.667 186.111L259.253 187.525L260.364 188.636L261.778 187.222L263.193 185.808L262.081 184.697L260.667 186.111ZM261.778 187.222L263.193 188.636L264.525 187.303L263.111 185.889L261.697 184.475L260.364 185.808L261.778 187.222ZM263.111 185.889L264.525 187.303C265.892 185.937 268.108 185.937 269.475 187.303L270.889 185.889L272.303 184.475C269.375 181.546 264.626 181.546 261.697 184.475L263.111 185.889ZM270.889 185.889L269.475 187.303C270.842 188.67 270.842 190.886 269.475 192.253L270.889 193.667L272.303 195.082C275.232 192.153 275.232 187.404 272.304 184.475L270.889 185.889ZM270.889 193.667L269.475 192.253L261.343 200.385L262.758 201.799L264.172 203.213L272.303 195.082L270.889 193.667ZM262.758 201.799L261.343 200.385C261.442 200.286 261.551 200.217 261.654 200.173L262.447 202.009L263.24 203.845C263.568 203.703 263.889 203.496 264.172 203.213L262.758 201.799ZM262.447 202.009L261.033 200.595L261.021 200.607L262.435 202.021L263.849 203.435L263.861 203.423L262.447 202.009ZM262.435 202.021L261.021 200.607C261.411 200.216 262.045 200.216 262.435 200.607L261.021 202.021L259.607 203.435C260.778 204.607 262.678 204.607 263.849 203.435L262.435 202.021ZM261.021 202.021L262.435 200.607L254.303 192.475L252.889 193.889L251.475 195.303L259.607 203.435L261.021 202.021ZM252.889 193.889L254.303 192.475C252.936 191.108 252.936 188.892 254.303 187.525L252.889 186.111L251.475 184.697C248.546 187.626 248.546 192.374 251.475 195.303L252.889 193.889Z" fill="black" mask="url(#path-6-inside-1_5_9)"/>
<path d="M-29 268H290V336C290 341.523 285.523 346 280 346H-19C-24.5228 346 -29 341.523 -29 336V268Z" fill="#A8A8A8"/>
<path d="M6.53924 332V326.909H7.61559V331.113H9.79812V332H6.53924ZM10.5123 333.432C10.378 333.432 10.2521 333.421 10.1344 333.4C10.0184 333.38 9.92232 333.354 9.84609 333.322L10.0847 332.532C10.209 332.57 10.3209 332.591 10.4203 332.594C10.5214 332.597 10.6084 332.574 10.6813 332.525C10.7559 332.475 10.8164 332.39 10.8628 332.271L10.9249 332.109L9.55525 328.182H10.6689L11.4594 330.986H11.4991L12.2971 328.182H13.4182L11.9342 332.413C11.8629 332.618 11.7659 332.797 11.6433 332.95C11.5223 333.104 11.369 333.222 11.1834 333.305C10.9978 333.39 10.7741 333.432 10.5123 333.432ZM15.4082 332.075C15.022 332.075 14.6881 331.993 14.4064 331.828C14.1263 331.663 13.9101 331.432 13.7576 331.137C13.6051 330.841 13.5289 330.497 13.5289 330.106C13.5289 329.711 13.6051 329.367 13.7576 329.072C13.9101 328.775 14.1263 328.545 14.4064 328.381C14.6881 328.215 15.022 328.132 15.4082 328.132C15.7943 328.132 16.1274 328.215 16.4075 328.381C16.6892 328.545 16.9063 328.775 17.0587 329.072C17.2112 329.367 17.2874 329.711 17.2874 330.106C17.2874 330.497 17.2112 330.841 17.0587 331.137C16.9063 331.432 16.6892 331.663 16.4075 331.828C16.1274 331.993 15.7943 332.075 15.4082 332.075ZM15.4131 331.254C15.5888 331.254 15.7355 331.205 15.8531 331.105C15.9708 331.004 16.0595 330.866 16.1191 330.692C16.1804 330.518 16.2111 330.32 16.2111 330.098C16.2111 329.876 16.1804 329.678 16.1191 329.504C16.0595 329.33 15.9708 329.193 15.8531 329.092C15.7355 328.991 15.5888 328.94 15.4131 328.94C15.2358 328.94 15.0867 328.991 14.9657 329.092C14.8464 329.193 14.7561 329.33 14.6947 329.504C14.6351 329.678 14.6053 329.876 14.6053 330.098C14.6053 330.32 14.6351 330.518 14.6947 330.692C14.7561 330.866 14.8464 331.004 14.9657 331.105C15.0867 331.205 15.2358 331.254 15.4131 331.254ZM18.8809 329.793V332H17.822V328.182H18.8312V328.855H18.876C18.9605 328.633 19.1022 328.458 19.301 328.328C19.4999 328.198 19.741 328.132 20.0244 328.132C20.2896 328.132 20.5207 328.19 20.718 328.306C20.9152 328.422 21.0684 328.588 21.1778 328.803C21.2872 329.017 21.3419 329.272 21.3419 329.569V332H20.2829V329.758C20.2846 329.524 20.2249 329.342 20.104 329.211C19.983 329.078 19.8164 329.012 19.6043 329.012C19.4618 329.012 19.3358 329.043 19.2265 329.104C19.1188 329.165 19.0342 329.255 18.9729 329.373C18.9133 329.489 18.8826 329.629 18.8809 329.793ZM23.68 332L25.7905 327.824V327.789H23.332V326.909H26.9041V327.801L24.7912 332H23.68ZM28.8823 332.075C28.4895 332.075 28.1515 331.995 27.8681 331.836C27.5864 331.675 27.3693 331.448 27.2168 331.155C27.0643 330.86 26.9881 330.511 26.9881 330.108C26.9881 329.716 27.0643 329.371 27.2168 329.074C27.3693 328.778 27.5839 328.546 27.8606 328.381C28.139 328.215 28.4655 328.132 28.84 328.132C29.0919 328.132 29.3264 328.173 29.5435 328.254C29.7623 328.333 29.9528 328.454 30.1152 328.614C30.2793 328.775 30.4069 328.977 30.498 329.221C30.5892 329.463 30.6348 329.746 30.6348 330.071V330.362H27.4107V329.706H29.638C29.638 329.553 29.6048 329.418 29.5385 329.3C29.4722 329.183 29.3803 329.091 29.2626 329.025C29.1466 328.957 29.0115 328.923 28.8574 328.923C28.6967 328.923 28.5542 328.96 28.4299 329.034C28.3072 329.107 28.2111 329.206 28.1415 329.33C28.0719 329.453 28.0363 329.59 28.0346 329.74V330.364C28.0346 330.553 28.0694 330.717 28.139 330.854C28.2103 330.992 28.3105 331.098 28.4398 331.172C28.5691 331.247 28.7224 331.284 28.8997 331.284C29.0173 331.284 29.1251 331.268 29.2228 331.234C29.3206 331.201 29.4043 331.152 29.4739 331.085C29.5435 331.019 29.5965 330.938 29.633 330.842L30.6124 330.906C30.5627 331.142 30.4608 331.347 30.3066 331.523C30.1542 331.697 29.957 331.833 29.715 331.93C29.4747 332.027 29.1972 332.075 28.8823 332.075Z" fill="black"/>
<path d="M237 324H271" stroke="white" stroke-width="12" stroke-linecap="round"/>
<path d="M111 210.6C111 208.51 112.71 206.8 114.8 206.8H145.2C146.208 206.8 147.174 207.2 147.887 207.913C148.6 208.626 149 209.592 149 210.6V233.4C149 234.408 148.6 235.374 147.887 236.087C147.174 236.8 146.208 237.2 145.2 237.2H114.8C113.792 237.2 112.826 236.8 112.113 236.087C111.4 235.374 111 234.408 111 233.4V210.6ZM131.9 227.7L126.2 222L114.8 233.4H145.2L135.7 223.9L131.9 227.7ZM139.5 220.1C140.508 220.1 141.474 219.7 142.187 218.987C142.9 218.274 143.3 217.308 143.3 216.3C143.3 215.292 142.9 214.326 142.187 213.613C141.474 212.9 140.508 212.5 139.5 212.5C138.492 212.5 137.526 212.9 136.813 213.613C136.1 214.326 135.7 215.292 135.7 216.3C135.7 217.308 136.1 218.274 136.813 218.987C137.526 219.7 138.492 220.1 139.5 220.1Z" fill="black"/>
<rect x="318" y="161" width="319" height="185" rx="10" fill="#D9D9D9"/>
<path d="M318 267H637V335C637 340.523 632.523 345 627 345H328C322.477 345 318 340.523 318 335V267Z" fill="#A8A8A8"/>
<path d="M337 290H489" stroke="white" stroke-width="11" stroke-linecap="round"/>
<path d="M334 309H486" stroke="white" stroke-width="4" stroke-linecap="round"/>
<path d="M334 323H486" stroke="white" stroke-width="4" stroke-linecap="round"/>
<rect x="-138" y="413" width="319" height="185" rx="10" fill="#D9D9D9"/>
<mask id="path-18-inside-2_5_9" fill="white">
<path d="M143.889 437.111C146.037 434.963 149.519 434.963 151.667 437.111L152.778 438.222L154.111 436.889C156.259 434.741 159.741 434.741 161.889 436.889C164.037 439.037 164.037 442.52 161.889 444.667L153.758 452.799C153.665 452.891 153.559 452.96 153.447 453.009L153.435 453.021C153.045 453.411 152.411 453.411 152.021 453.021L143.889 444.889C141.741 442.741 141.741 439.259 143.889 437.111Z"/>
</mask>
<path d="M143.889 437.111L142.475 435.697L143.889 437.111ZM151.667 437.111L153.081 435.697L151.667 437.111ZM152.778 438.222L151.364 439.636L152.778 441.05L154.193 439.636L152.778 438.222ZM154.111 436.889L152.697 435.475L154.111 436.889ZM161.889 436.889L163.304 435.475L163.303 435.475L161.889 436.889ZM161.889 444.667L160.475 443.253L161.889 444.667ZM153.758 452.799L155.172 454.213L155.172 454.213L153.758 452.799ZM153.447 453.009L152.654 451.173L152.303 451.325L152.033 451.595L153.447 453.009ZM143.889 444.889L142.475 446.303L142.475 446.303L143.889 444.889ZM143.889 437.111L145.303 438.525C146.67 437.158 148.886 437.158 150.253 438.525L151.667 437.111L153.081 435.697C150.153 432.768 145.404 432.768 142.475 435.697L143.889 437.111ZM151.667 437.111L150.253 438.525L151.364 439.636L152.778 438.222L154.193 436.808L153.081 435.697L151.667 437.111ZM152.778 438.222L154.193 439.636L155.525 438.303L154.111 436.889L152.697 435.475L151.364 436.808L152.778 438.222ZM154.111 436.889L155.525 438.303C156.892 436.937 159.108 436.937 160.475 438.303L161.889 436.889L163.303 435.475C160.375 432.546 155.626 432.546 152.697 435.475L154.111 436.889ZM161.889 436.889L160.475 438.303C161.842 439.67 161.842 441.886 160.475 443.253L161.889 444.667L163.303 446.082C166.232 443.153 166.232 438.404 163.304 435.475L161.889 436.889ZM161.889 444.667L160.475 443.253L152.343 451.385L153.758 452.799L155.172 454.213L163.303 446.082L161.889 444.667ZM153.758 452.799L152.343 451.385C152.442 451.286 152.551 451.217 152.654 451.173L153.447 453.009L154.24 454.845C154.568 454.703 154.889 454.496 155.172 454.213L153.758 452.799ZM153.447 453.009L152.033 451.595L152.021 451.607L153.435 453.021L154.849 454.435L154.861 454.423L153.447 453.009ZM153.435 453.021L152.021 451.607C152.411 451.216 153.045 451.216 153.435 451.607L152.021 453.021L150.607 454.435C151.778 455.607 153.678 455.607 154.849 454.435L153.435 453.021ZM152.021 453.021L153.435 451.607L145.303 443.475L143.889 444.889L142.475 446.303L150.607 454.435L152.021 453.021ZM143.889 444.889L145.303 443.475C143.936 442.108 143.936 439.892 145.303 438.525L143.889 437.111L142.475 435.697C139.546 438.626 139.546 443.374 142.475 446.303L143.889 444.889Z" fill="black" mask="url(#path-18-inside-2_5_9)"/>
<path d="M-138 519H181V587C181 592.523 176.523 597 171 597H-128C-133.523 597 -138 592.523 -138 587V519Z" fill="#A8A8A8"/>
<path d="M-119 542H33" stroke="white" stroke-width="11" stroke-linecap="round"/>
<path d="M-122 561H30" stroke="white" stroke-width="4" stroke-linecap="round"/>
<path d="M-122 575H30" stroke="white" stroke-width="4" stroke-linecap="round"/>
<path d="M128 575H162" stroke="white" stroke-width="12" stroke-linecap="round"/>
<path d="M2 461.6C2 459.51 3.71 457.8 5.8 457.8H36.2C37.2078 457.8 38.1744 458.2 38.887 458.913C39.5996 459.626 40 460.592 40 461.6V484.4C40 485.408 39.5996 486.374 38.887 487.087C38.1744 487.8 37.2078 488.2 36.2 488.2H5.8C4.79218 488.2 3.82563 487.8 3.11299 487.087C2.40036 486.374 2 485.408 2 484.4V461.6ZM22.9 478.7L17.2 473L5.8 484.4H36.2L26.7 474.9L22.9 478.7ZM30.5 471.1C31.5078 471.1 32.4744 470.7 33.187 469.987C33.8996 469.274 34.3 468.308 34.3 467.3C34.3 466.292 33.8996 465.326 33.187 464.613C32.4744 463.9 31.5078 463.5 30.5 463.5C29.4922 463.5 28.5256 463.9 27.813 464.613C27.1004 465.326 26.7 466.292 26.7 467.3C26.7 468.308 27.1004 469.274 27.813 469.987C28.5256 470.7 29.4922 471.1 30.5 471.1Z" fill="black"/>
<rect x="209" y="413" width="319" height="185" rx="10" fill="#D9D9D9"/>
<path d="M209 519H528V587C528 592.523 523.523 597 518 597H219C213.477 597 209 592.523 209 587V519Z" fill="#A8A8A8"/>
<path d="M228 542H380" stroke="white" stroke-width="11" stroke-linecap="round"/>
<path d="M225 561H377" stroke="white" stroke-width="4" stroke-linecap="round"/>
<path d="M225 575H377" stroke="white" stroke-width="4" stroke-linecap="round"/>
<path d="M349 461.6C349 459.51 350.71 457.8 352.8 457.8H383.2C384.208 457.8 385.174 458.2 385.887 458.913C386.6 459.626 387 460.592 387 461.6V484.4C387 485.408 386.6 486.374 385.887 487.087C385.174 487.8 384.208 488.2 383.2 488.2H352.8C351.792 488.2 350.826 487.8 350.113 487.087C349.4 486.374 349 485.408 349 484.4V461.6ZM369.9 478.7L364.2 473L352.8 484.4H383.2L373.7 474.9L369.9 478.7ZM377.5 471.1C378.508 471.1 379.474 470.7 380.187 469.987C380.9 469.274 381.3 468.308 381.3 467.3C381.3 466.292 380.9 465.326 380.187 464.613C379.474 463.9 378.508 463.5 377.5 463.5C376.492 463.5 375.526 463.9 374.813 464.613C374.1 465.326 373.7 466.292 373.7 467.3C373.7 468.308 374.1 469.274 374.813 469.987C375.526 470.7 376.492 471.1 377.5 471.1Z" fill="black"/>
<rect x="11" y="629" width="155" height="18" rx="9" fill="#D9D9D9"/>
<rect x="-153" y="696" width="319" height="185" rx="10" fill="#D9D9D9"/>
<mask id="path-34-inside-3_5_9" fill="white">
<path d="M128.889 720.111C131.037 717.963 134.519 717.963 136.667 720.111L137.778 721.222L139.111 719.889C141.259 717.741 144.741 717.741 146.889 719.889C149.037 722.037 149.037 725.52 146.889 727.667L138.758 735.799C138.665 735.891 138.559 735.96 138.447 736.009L138.435 736.021C138.045 736.411 137.411 736.411 137.021 736.021L128.889 727.889C126.741 725.741 126.741 722.259 128.889 720.111Z"/>
</mask>
<path d="M128.889 720.111L127.475 718.697L128.889 720.111ZM136.667 720.111L138.081 718.697L136.667 720.111ZM137.778 721.222L136.364 722.636L137.778 724.05L139.193 722.636L137.778 721.222ZM139.111 719.889L137.697 718.475L139.111 719.889ZM146.889 719.889L148.304 718.475L148.303 718.475L146.889 719.889ZM146.889 727.667L145.475 726.253L146.889 727.667ZM138.758 735.799L140.172 737.213L140.172 737.213L138.758 735.799ZM138.447 736.009L137.654 734.173L137.303 734.325L137.033 734.595L138.447 736.009ZM128.889 727.889L127.475 729.303L127.475 729.303L128.889 727.889ZM128.889 720.111L130.303 721.525C131.67 720.158 133.886 720.158 135.253 721.525L136.667 720.111L138.081 718.697C135.153 715.768 130.404 715.768 127.475 718.697L128.889 720.111ZM136.667 720.111L135.253 721.525L136.364 722.636L137.778 721.222L139.193 719.808L138.081 718.697L136.667 720.111ZM137.778 721.222L139.193 722.636L140.525 721.303L139.111 719.889L137.697 718.475L136.364 719.808L137.778 721.222ZM139.111 719.889L140.525 721.303C141.892 719.937 144.108 719.937 145.475 721.303L146.889 719.889L148.303 718.475C145.375 715.546 140.626 715.546 137.697 718.475L139.111 719.889ZM146.889 719.889L145.475 721.303C146.842 722.67 146.842 724.886 145.475 726.253L146.889 727.667L148.303 729.082C151.232 726.153 151.232 721.404 148.304 718.475L146.889 719.889ZM146.889 727.667L145.475 726.253L137.343 734.385L138.758 735.799L140.172 737.213L148.303 729.082L146.889 727.667ZM138.758 735.799L137.343 734.385C137.442 734.286 137.551 734.217 137.654 734.173L138.447 736.009L139.24 737.845C139.568 737.703 139.889 737.496 140.172 737.213L138.758 735.799ZM138.447 736.009L137.033 734.595L137.021 734.607L138.435 736.021L139.849 737.435L139.861 737.423L138.447 736.009ZM138.435 736.021L137.021 734.607C137.411 734.216 138.045 734.216 138.435 734.607L137.021 736.021L135.607 737.435C136.778 738.607 138.678 738.607 139.849 737.435L138.435 736.021ZM137.021 736.021L138.435 734.607L130.303 726.475L128.889 727.889L127.475 729.303L135.607 737.435L137.021 736.021ZM128.889 727.889L130.303 726.475C128.936 725.108 128.936 722.892 130.303 721.525L128.889 720.111L127.475 718.697C124.546 721.626 124.546 726.374 127.475 729.303L128.889 727.889Z" fill="black" mask="url(#path-34-inside-3_5_9)"/>
<path d="M-84 829.5L155.222 848.159C161.034 848.613 166 844.019 166 838.19V802V870C166 875.523 161.523 880 156 880H-122.405C-132.074 880 -136.114 867.641 -128.311 861.93L-84 829.5Z" fill="white"/>
<path d="M-134 825H18" stroke="white" stroke-width="11" stroke-linecap="round"/>
<path d="M-137 844H15" stroke="white" stroke-width="4" stroke-linecap="round"/>
<path d="M-13 744.6C-13 742.51 -11.29 740.8 -9.2 740.8H21.2C22.2078 740.8 23.1744 741.2 23.887 741.913C24.5996 742.626 25 743.592 25 744.6V767.4C25 768.408 24.5996 769.374 23.887 770.087C23.1744 770.8 22.2078 771.2 21.2 771.2H-9.2C-10.2078 771.2 -11.1744 770.8 -11.887 770.087C-12.5996 769.374 -13 768.408 -13 767.4V744.6ZM7.9 761.7L2.2 756L-9.2 767.4H21.2L11.7 757.9L7.9 761.7ZM15.5 754.1C16.5078 754.1 17.4744 753.7 18.187 752.987C18.8996 752.274 19.3 751.308 19.3 750.3C19.3 749.292 18.8996 748.326 18.187 747.613C17.4744 746.9 16.5078 746.5 15.5 746.5C14.4922 746.5 13.5256 746.9 12.813 747.613C12.1004 748.326 11.7 749.292 11.7 750.3C11.7 751.308 12.1004 752.274 12.813 752.987C13.5256 753.7 14.4922 754.1 15.5 754.1Z" fill="black"/>
<rect x="251" y="664" width="319" height="185" rx="10" fill="#D9D9D9"/>
<path d="M251 812H570V833C570 838.523 565.523 843 560 843H261C255.477 843 251 838.523 251 833V812Z" fill="white"/>
<path d="M270 788H422" stroke="white" stroke-width="11" stroke-linecap="round"/>
<path d="M267 807H419" stroke="white" stroke-width="4" stroke-linecap="round"/>
<path d="M267 821H419" stroke="white" stroke-width="4" stroke-linecap="round"/>
<path d="M19 745H370C380.493 745 389 753.507 389 764V843H0V764C0 753.507 8.50659 745 19 745Z" fill="#ECF0F3" stroke="black" stroke-width="2"/>
<path d="M64.1152 773H69.2305C79.7239 773 88.2305 781.507 88.2305 792V797C88.2305 807.493 79.7239 816 69.2305 816H64.1152C53.6218 816 45.1152 807.493 45.1152 797V792C45.1152 781.507 53.6218 773 64.1152 773Z" stroke="black" stroke-width="2"/>
<path d="M63.4106 785.099C64.9562 783.625 67.3876 783.625 68.9331 785.099L74.9585 790.847C75.7496 791.602 76.1977 792.649 76.1978 793.742V800.465L76.1919 800.671C76.0881 802.716 74.4482 804.356 72.4028 804.46L72.1978 804.465H60.146L59.9399 804.46C57.8948 804.356 56.2547 802.716 56.1509 800.671L56.146 800.465V793.742C56.146 792.717 56.5397 791.734 57.2407 790.993L57.3853 790.847L63.4106 785.099ZM67.5522 786.546C66.8277 785.855 65.714 785.812 64.9409 786.417L64.7915 786.546L58.7651 792.295C58.4189 792.625 58.2049 793.067 58.1567 793.539L58.146 793.742V800.465C58.146 801.569 59.0415 802.465 60.146 802.465H62.6997C62.3902 801.932 62.1997 801.322 62.1665 800.671L62.1616 800.465V798.737C62.1618 797.641 62.6144 796.594 63.4028 795.842L63.5649 795.695C65.0619 794.414 67.2818 794.414 68.7788 795.695C69.6669 796.455 70.182 797.568 70.1821 798.737V800.465L70.1772 800.671C70.144 801.322 69.9536 801.932 69.644 802.465H72.1978C73.3021 802.464 74.1977 801.569 74.1978 800.465V793.742C74.1977 793.195 73.9732 792.672 73.5776 792.295L67.5522 786.546ZM67.479 797.215C66.7772 796.614 65.7515 796.577 65.0093 797.102L64.8647 797.215C64.4189 797.596 64.1618 798.155 64.1616 798.737V800.465C64.1616 801.563 65.0611 802.465 66.1724 802.465C67.2834 802.464 68.1821 801.562 68.1821 800.465V798.737C68.182 798.228 67.9851 797.737 67.6372 797.366L67.479 797.215Z" fill="black"/>
<path d="M319.769 773H324.885C335.378 773 343.885 781.507 343.885 792V797C343.885 807.493 335.378 816 324.885 816H319.769C309.276 816 300.769 807.493 300.769 797V792C300.769 781.507 309.276 773 319.769 773Z" stroke="black" stroke-width="2"/>
<path d="M311.8 801.625C311.8 800.365 312.328 799.157 313.268 798.266C314.208 797.375 315.483 796.875 316.813 796.875H326.838C328.168 796.875 329.443 797.375 330.383 798.266C331.323 799.157 331.851 800.365 331.851 801.625C331.851 802.255 331.587 802.859 331.117 803.304C330.647 803.75 330.009 804 329.345 804H314.306C313.641 804 313.004 803.75 312.534 803.304C312.064 802.859 311.8 802.255 311.8 801.625Z" stroke="black" stroke-linejoin="round"/>
<path d="M321.825 792.125C323.902 792.125 325.585 790.53 325.585 788.562C325.585 786.595 323.902 785 321.825 785C319.749 785 318.066 786.595 318.066 788.562C318.066 790.53 319.749 792.125 321.825 792.125Z" stroke="black"/>
<path d="M234.551 773H239.667C250.16 773 258.667 781.507 258.667 792V797C258.667 807.493 250.16 816 239.667 816H234.551C224.058 816 215.551 807.493 215.551 797V792C215.551 781.507 224.058 773 234.551 773Z" stroke="black" stroke-width="2"/>
<path fill-rule="evenodd" clip-rule="evenodd" d="M244.109 796.118C244.788 795.43 245.165 794.501 245.158 793.535C245.15 792.569 244.758 791.646 244.068 790.968C243.727 790.633 243.322 790.367 242.878 790.188C242.433 790.008 241.958 789.918 241.478 789.922C240.51 789.929 239.584 790.32 238.905 791.008C238.72 791.192 238.486 791.418 238.202 791.686L237.411 792.429L236.62 791.686C236.335 791.418 236.1 791.192 235.916 791.008C235.231 790.325 234.303 789.942 233.334 789.942C232.366 789.942 231.437 790.325 230.753 791.008C229.342 792.416 229.326 794.692 230.701 796.107L237.411 802.8L244.109 796.118ZM229.937 790.196C230.383 789.751 230.913 789.398 231.496 789.157C232.079 788.916 232.703 788.792 233.334 788.792C233.965 788.792 234.59 788.916 235.173 789.157C235.756 789.398 236.286 789.751 236.732 790.196C236.907 790.371 237.133 790.589 237.411 790.849C237.688 790.589 237.914 790.37 238.09 790.195C238.984 789.289 240.202 788.775 241.476 788.765C242.75 788.756 243.976 789.251 244.884 790.143C245.792 791.035 246.307 792.25 246.317 793.52C246.327 794.791 245.83 796.014 244.936 796.919L238.09 803.748C237.91 803.928 237.666 804.029 237.411 804.029C237.156 804.029 236.912 803.928 236.732 803.748L229.884 796.918C229.006 796.015 228.519 794.803 228.529 793.545C228.539 792.287 229.045 791.083 229.937 790.194V790.196Z" fill="black"/>
<rect x="130.333" y="773" width="43.1154" height="43" rx="19" stroke="black" stroke-width="2"/>
<path d="M144.167 787.833H159.5V799.333H145.288L144.167 800.455V787.833ZM144.167 785.917C143.113 785.917 142.26 786.779 142.26 787.833L142.25 805.083L146.084 801.25H159.5C160.554 801.25 161.417 800.387 161.417 799.333V787.833C161.417 786.779 160.554 785.917 159.5 785.917H144.167ZM146.084 795.5H157.584V797.417H146.084V795.5ZM146.084 792.625H157.584V794.542H146.084V792.625ZM146.084 789.75H157.584V791.667H146.084V789.75Z" fill="black"/>
<path d="M74.6467 282.909V284.386H70.3765V282.909H74.6467ZM71.3459 281.21H73.3126V287.821C73.3126 288.003 73.3403 288.144 73.3957 288.246C73.4511 288.344 73.528 288.413 73.6265 288.453C73.7281 288.493 73.845 288.513 73.9773 288.513C74.0697 288.513 74.162 288.506 74.2543 288.49C74.3467 288.472 74.4174 288.458 74.4667 288.449L74.776 289.912C74.6775 289.943 74.539 289.978 74.3605 290.018C74.182 290.062 73.965 290.088 73.7096 290.097C73.2356 290.115 72.8201 290.052 72.4631 289.908C72.1092 289.763 71.8338 289.538 71.6368 289.234C71.4398 288.929 71.3429 288.544 71.3459 288.08V281.21ZM79.4135 282.909V284.386H75.1432V282.909H79.4135ZM76.1127 281.21H78.0793V287.821C78.0793 288.003 78.107 288.144 78.1624 288.246C78.2178 288.344 78.2947 288.413 78.3932 288.453C78.4948 288.493 78.6117 288.513 78.7441 288.513C78.8364 288.513 78.9287 288.506 79.0211 288.49C79.1134 288.472 79.1842 288.458 79.2334 288.449L79.5427 289.912C79.4442 289.943 79.3057 289.978 79.1272 290.018C78.9487 290.062 78.7318 290.088 78.4763 290.097C78.0024 290.115 77.5869 290.052 77.2299 289.908C76.8759 289.763 76.6005 289.538 76.4035 289.234C76.2066 288.929 76.1096 288.544 76.1127 288.08V281.21Z" fill="black"/>
<path d="M10.3357 313.119C9.73338 313.119 9.19645 313.009 8.72486 312.787C8.25611 312.565 7.88395 312.26 7.60838 311.871C7.33281 311.482 7.18934 311.036 7.17798 310.533H8.96775C8.98764 310.871 9.12969 311.145 9.39389 311.355C9.65809 311.565 9.97202 311.67 10.3357 311.67C10.6254 311.67 10.8811 311.607 11.1027 311.479C11.3271 311.348 11.5018 311.168 11.6268 310.938C11.7547 310.705 11.8186 310.437 11.8186 310.136C11.8186 309.83 11.7533 309.56 11.6226 309.327C11.4947 309.094 11.3172 308.912 11.0899 308.781C10.8626 308.651 10.6027 308.584 10.3101 308.581C10.0544 308.581 9.80582 308.634 9.56435 308.739C9.32571 308.844 9.13963 308.987 9.00611 309.169L7.36548 308.875L7.77883 304.273H13.1141V305.781H9.30014L9.07429 307.967H9.12542C9.27883 307.751 9.51037 307.572 9.82003 307.43C10.1297 307.288 10.4763 307.217 10.8598 307.217C11.3854 307.217 11.8541 307.341 12.266 307.588C12.678 307.835 13.0033 308.175 13.2419 308.607C13.4805 309.036 13.5984 309.53 13.5956 310.089C13.5984 310.678 13.4621 311.2 13.1865 311.658C12.9138 312.112 12.5317 312.47 12.0402 312.732C11.5516 312.99 10.9834 313.119 10.3357 313.119ZM14.4864 311.466V310.013L18.1299 304.273H19.3827V306.284H18.6413L16.3444 309.919V309.987H21.5219V311.466H14.4864ZM18.6753 313V311.023L18.7094 310.379V304.273H20.4395V313H18.6753ZM22.8325 313L26.4504 305.841V305.781H22.2359V304.273H28.3595V305.803L24.7373 313H22.8325ZM35.1214 307.277L34.6995 308.21H29.0021L29.3473 307.277H35.1214ZM34.3075 309.062L33.843 310.017H29.0021L29.3473 309.062H34.3075ZM36.2294 304.946L35.5476 306.403C35.4339 306.324 35.2961 306.237 35.1342 306.143C34.9751 306.047 34.7919 305.966 34.5845 305.901C34.3799 305.832 34.1527 305.798 33.9027 305.798C33.5078 305.798 33.164 305.898 32.8714 306.097C32.5788 306.295 32.3515 306.605 32.1896 307.026C32.0305 307.446 31.951 307.986 31.951 308.645C31.951 309.31 32.0305 309.851 32.1896 310.268C32.3515 310.683 32.5788 310.989 32.8714 311.185C33.164 311.378 33.5078 311.474 33.9027 311.474C34.1527 311.474 34.3799 311.442 34.5845 311.376C34.789 311.311 34.968 311.233 35.1214 311.142C35.2777 311.051 35.4084 310.967 35.5135 310.891L36.2038 312.348C35.8941 312.604 35.5433 312.797 35.1513 312.928C34.7592 313.055 34.343 313.119 33.9027 313.119C33.1584 313.119 32.4993 312.943 31.9254 312.591C31.3544 312.236 30.9069 311.726 30.5831 311.061C30.2592 310.393 30.0973 309.588 30.0973 308.645C30.0973 307.705 30.2592 306.899 30.5831 306.229C30.9069 305.558 31.3544 305.045 31.9254 304.69C32.4993 304.332 33.1584 304.153 33.9027 304.153C34.3601 304.153 34.7834 304.222 35.1726 304.358C35.5618 304.494 35.914 304.69 36.2294 304.946ZM41.1525 303.864L38.34 314.312H36.7761L39.5886 303.864H41.1525ZM41.7632 313V306.455H43.4933V307.609H43.57C43.7063 307.226 43.9336 306.923 44.2518 306.702C44.57 306.48 44.9507 306.369 45.3938 306.369C45.8427 306.369 46.2248 306.482 46.5402 306.706C46.8555 306.928 47.0657 307.229 47.1708 307.609H47.239C47.3725 307.234 47.614 306.935 47.9635 306.71C48.3157 306.483 48.7319 306.369 49.212 306.369C49.8228 306.369 50.3186 306.564 50.6992 306.953C51.0828 307.339 51.2745 307.888 51.2745 308.598V313H49.4635V308.956C49.4635 308.592 49.3669 308.32 49.1737 308.138C48.9805 307.956 48.739 307.865 48.4492 307.865C48.1197 307.865 47.8626 307.97 47.6779 308.18C47.4933 308.388 47.401 308.662 47.401 309.003V313H45.641V308.918C45.641 308.597 45.5487 308.341 45.364 308.151C45.1822 307.96 44.9421 307.865 44.6438 307.865C44.4421 307.865 44.2603 307.916 44.0984 308.018C43.9393 308.118 43.8129 308.259 43.7191 308.44C43.6254 308.619 43.5785 308.83 43.5785 309.071V313H41.7632ZM55.4019 313.128C54.7399 313.128 54.1675 312.987 53.6845 312.706C53.2044 312.422 52.8337 312.027 52.5723 311.521C52.311 311.013 52.1803 310.423 52.1803 309.753C52.1803 309.077 52.311 308.486 52.5723 307.98C52.8337 307.472 53.2044 307.077 53.6845 306.795C54.1675 306.511 54.7399 306.369 55.4019 306.369C56.0638 306.369 56.6348 306.511 57.1149 306.795C57.5979 307.077 57.97 307.472 58.2314 307.98C58.4928 308.486 58.6235 309.077 58.6235 309.753C58.6235 310.423 58.4928 311.013 58.2314 311.521C57.97 312.027 57.5979 312.422 57.1149 312.706C56.6348 312.987 56.0638 313.128 55.4019 313.128ZM55.4104 311.722C55.7115 311.722 55.9629 311.636 56.1646 311.466C56.3664 311.293 56.5183 311.057 56.6206 310.759C56.7257 310.46 56.7783 310.121 56.7783 309.74C56.7783 309.359 56.7257 309.02 56.6206 308.722C56.5183 308.423 56.3664 308.187 56.1646 308.014C55.9629 307.841 55.7115 307.754 55.4104 307.754C55.1064 307.754 54.8507 307.841 54.6433 308.014C54.4388 308.187 54.284 308.423 54.1789 308.722C54.0766 309.02 54.0254 309.359 54.0254 309.74C54.0254 310.121 54.0766 310.46 54.1789 310.759C54.284 311.057 54.4388 311.293 54.6433 311.466C54.8507 311.636 55.1064 311.722 55.4104 311.722ZM59.5399 313V306.455H61.3552V313H59.5399ZM60.4518 305.611C60.1819 305.611 59.9504 305.521 59.7572 305.342C59.5668 305.161 59.4717 304.943 59.4717 304.69C59.4717 304.44 59.5668 304.226 59.7572 304.047C59.9504 303.865 60.1819 303.774 60.4518 303.774C60.7217 303.774 60.9518 303.865 61.1421 304.047C61.3353 304.226 61.4319 304.44 61.4319 304.69C61.4319 304.943 61.3353 305.161 61.1421 305.342C60.9518 305.521 60.7217 305.611 60.4518 305.611ZM67.9914 308.321L66.3295 308.423C66.3011 308.281 66.24 308.153 66.1462 308.04C66.0525 307.923 65.9289 307.831 65.7755 307.763C65.6249 307.692 65.4445 307.656 65.2343 307.656C64.9531 307.656 64.7158 307.716 64.5227 307.835C64.3295 307.952 64.2329 308.108 64.2329 308.304C64.2329 308.46 64.2954 308.592 64.4204 308.7C64.5454 308.808 64.7599 308.895 65.0639 308.96L66.2485 309.199C66.8849 309.33 67.3593 309.54 67.6718 309.83C67.9843 310.119 68.1406 310.5 68.1406 310.972C68.1406 311.401 68.0141 311.777 67.7613 312.101C67.5113 312.425 67.1675 312.678 66.73 312.859C66.2954 313.038 65.794 313.128 65.2258 313.128C64.3593 313.128 63.669 312.947 63.1548 312.587C62.6434 312.223 62.3437 311.729 62.2556 311.104L64.0411 311.01C64.0951 311.274 64.2258 311.476 64.4332 311.615C64.6406 311.751 64.9062 311.82 65.23 311.82C65.5482 311.82 65.8039 311.759 65.9971 311.636C66.1931 311.511 66.2925 311.351 66.2954 311.155C66.2925 310.99 66.2229 310.855 66.0866 310.75C65.9502 310.642 65.74 310.56 65.4559 310.503L64.3224 310.277C63.6832 310.149 63.2073 309.928 62.8948 309.612C62.5852 309.297 62.4303 308.895 62.4303 308.406C62.4303 307.986 62.544 307.624 62.7712 307.32C63.0014 307.016 63.3238 306.781 63.7386 306.616C64.1562 306.452 64.6448 306.369 65.2045 306.369C66.0312 306.369 66.6817 306.544 67.1562 306.893C67.6335 307.243 67.9119 307.719 67.9914 308.321Z" fill="black"/>
<path d="M191.378 292V291.224L193.19 289.547C193.344 289.397 193.473 289.263 193.578 289.144C193.684 289.025 193.764 288.908 193.819 288.793C193.874 288.677 193.901 288.552 193.901 288.418C193.901 288.269 193.867 288.14 193.799 288.033C193.731 287.923 193.638 287.84 193.521 287.782C193.403 287.722 193.27 287.692 193.12 287.692C192.965 287.692 192.829 287.724 192.713 287.787C192.597 287.85 192.507 287.94 192.444 288.058C192.381 288.175 192.35 288.315 192.35 288.478H191.328C191.328 288.145 191.404 287.855 191.554 287.61C191.705 287.365 191.916 287.175 192.188 287.041C192.46 286.907 192.773 286.839 193.128 286.839C193.492 286.839 193.81 286.904 194.08 287.033C194.352 287.161 194.563 287.338 194.714 287.565C194.865 287.792 194.94 288.053 194.94 288.346C194.94 288.538 194.902 288.728 194.826 288.915C194.751 289.102 194.618 289.31 194.425 289.539C194.233 289.766 193.962 290.039 193.613 290.357L192.869 291.085V291.12H195.007V292H191.378ZM195.643 293.432V288.182H196.687V288.823H196.734C196.781 288.72 196.848 288.616 196.936 288.51C197.025 288.402 197.141 288.313 197.284 288.241C197.428 288.169 197.607 288.132 197.821 288.132C198.099 288.132 198.356 288.205 198.591 288.351C198.826 288.495 199.015 288.713 199.155 289.005C199.296 289.295 199.367 289.658 199.367 290.096C199.367 290.522 199.298 290.881 199.16 291.175C199.024 291.466 198.839 291.688 198.604 291.838C198.37 291.988 198.108 292.062 197.818 292.062C197.613 292.062 197.438 292.028 197.294 291.96C197.151 291.892 197.034 291.807 196.943 291.704C196.852 291.6 196.782 291.495 196.734 291.388H196.702V293.432H195.643ZM196.68 290.091C196.68 290.318 196.711 290.516 196.774 290.685C196.837 290.854 196.928 290.986 197.047 291.08C197.167 291.173 197.312 291.219 197.482 291.219C197.655 291.219 197.801 291.172 197.92 291.078C198.039 290.982 198.13 290.849 198.191 290.68C198.254 290.509 198.285 290.313 198.285 290.091C198.285 289.871 198.255 289.677 198.193 289.509C198.132 289.342 198.042 289.211 197.922 289.116C197.803 289.022 197.656 288.975 197.482 288.975C197.31 288.975 197.164 289.02 197.045 289.112C196.927 289.203 196.837 289.332 196.774 289.499C196.711 289.667 196.68 289.864 196.68 290.091ZM199.919 292V288.182H200.978V292H199.919ZM200.451 287.69C200.293 287.69 200.158 287.637 200.045 287.533C199.934 287.427 199.879 287.3 199.879 287.153C199.879 287.007 199.934 286.882 200.045 286.777C200.158 286.671 200.293 286.618 200.451 286.618C200.608 286.618 200.742 286.671 200.853 286.777C200.966 286.882 201.022 287.007 201.022 287.153C201.022 287.3 200.966 287.427 200.853 287.533C200.742 287.637 200.608 287.69 200.451 287.69ZM203.412 292.075C203.019 292.075 202.681 291.995 202.398 291.836C202.116 291.675 201.899 291.448 201.746 291.155C201.594 290.86 201.518 290.511 201.518 290.108C201.518 289.716 201.594 289.371 201.746 289.074C201.899 288.778 202.114 288.546 202.39 288.381C202.669 288.215 202.995 288.132 203.37 288.132C203.622 288.132 203.856 288.173 204.073 288.254C204.292 288.333 204.482 288.454 204.645 288.614C204.809 288.775 204.937 288.977 205.028 289.221C205.119 289.463 205.164 289.746 205.164 290.071V290.362H201.94V289.706H204.168C204.168 289.553 204.134 289.418 204.068 289.3C204.002 289.183 203.91 289.091 203.792 289.025C203.676 288.957 203.541 288.923 203.387 288.923C203.226 288.923 203.084 288.96 202.96 289.034C202.837 289.107 202.741 289.206 202.671 289.33C202.602 289.453 202.566 289.59 202.564 289.74V290.364C202.564 290.553 202.599 290.717 202.669 290.854C202.74 290.992 202.84 291.098 202.969 291.172C203.099 291.247 203.252 291.284 203.429 291.284C203.547 291.284 203.655 291.268 203.752 291.234C203.85 291.201 203.934 291.152 204.004 291.085C204.073 291.019 204.126 290.938 204.163 290.842L205.142 290.906C205.092 291.142 204.99 291.347 204.836 291.523C204.684 291.697 204.487 291.833 204.245 291.93C204.004 292.027 203.727 292.075 203.412 292.075ZM207.427 292.075C207.036 292.075 206.699 291.992 206.417 291.826C206.137 291.659 205.922 291.427 205.771 291.13C205.622 290.833 205.547 290.492 205.547 290.106C205.547 289.715 205.623 289.372 205.774 289.077C205.926 288.78 206.142 288.549 206.422 288.383C206.702 288.216 207.036 288.132 207.422 288.132C207.755 288.132 208.046 288.193 208.297 288.314C208.547 288.435 208.745 288.604 208.891 288.823C209.037 289.042 209.117 289.299 209.132 289.594H208.133C208.104 289.403 208.03 289.25 207.909 289.134C207.79 289.016 207.633 288.957 207.439 288.957C207.275 288.957 207.132 289.002 207.009 289.092C206.888 289.179 206.794 289.308 206.726 289.477C206.658 289.646 206.624 289.851 206.624 290.091C206.624 290.335 206.657 290.542 206.723 290.712C206.791 290.883 206.886 291.013 207.009 291.103C207.132 291.192 207.275 291.237 207.439 291.237C207.56 291.237 207.669 291.212 207.765 291.162C207.862 291.113 207.943 291.04 208.006 290.946C208.07 290.85 208.113 290.735 208.133 290.6H209.132C209.115 290.892 209.036 291.149 208.893 291.371C208.752 291.592 208.558 291.764 208.309 291.888C208.06 292.012 207.766 292.075 207.427 292.075ZM211.396 292.075C211.003 292.075 210.665 291.995 210.382 291.836C210.1 291.675 209.883 291.448 209.73 291.155C209.578 290.86 209.502 290.511 209.502 290.108C209.502 289.716 209.578 289.371 209.73 289.074C209.883 288.778 210.098 288.546 210.374 288.381C210.653 288.215 210.979 288.132 211.354 288.132C211.606 288.132 211.84 288.173 212.057 288.254C212.276 288.333 212.466 288.454 212.629 288.614C212.793 288.775 212.921 288.977 213.012 289.221C213.103 289.463 213.148 289.746 213.148 290.071V290.362H209.924V289.706H212.152C212.152 289.553 212.118 289.418 212.052 289.3C211.986 289.183 211.894 289.091 211.776 289.025C211.66 288.957 211.525 288.923 211.371 288.923C211.21 288.923 211.068 288.96 210.943 289.034C210.821 289.107 210.725 289.206 210.655 289.33C210.586 289.453 210.55 289.59 210.548 289.74V290.364C210.548 290.553 210.583 290.717 210.653 290.854C210.724 290.992 210.824 291.098 210.953 291.172C211.083 291.247 211.236 291.284 211.413 291.284C211.531 291.284 211.639 291.268 211.736 291.234C211.834 291.201 211.918 291.152 211.988 291.085C212.057 291.019 212.11 290.938 212.147 290.842L213.126 290.906C213.076 291.142 212.974 291.347 212.82 291.523C212.668 291.697 212.471 291.833 212.229 291.93C211.988 292.027 211.711 292.075 211.396 292.075ZM216.862 289.271L215.893 289.33C215.876 289.247 215.841 289.173 215.786 289.107C215.731 289.039 215.659 288.985 215.57 288.945C215.482 288.904 215.377 288.883 215.254 288.883C215.09 288.883 214.952 288.918 214.839 288.987C214.726 289.055 214.67 289.146 214.67 289.261C214.67 289.352 214.706 289.429 214.779 289.492C214.852 289.555 214.977 289.605 215.155 289.643L215.846 289.783C216.217 289.859 216.494 289.982 216.676 290.151C216.858 290.32 216.949 290.542 216.949 290.817C216.949 291.067 216.876 291.287 216.728 291.475C216.582 291.664 216.382 291.812 216.127 291.918C215.873 292.022 215.58 292.075 215.249 292.075C214.744 292.075 214.341 291.969 214.041 291.759C213.743 291.547 213.568 291.258 213.516 290.894L214.558 290.839C214.589 290.993 214.666 291.111 214.787 291.192C214.908 291.272 215.063 291.311 215.252 291.311C215.437 291.311 215.586 291.276 215.699 291.205C215.813 291.132 215.871 291.038 215.873 290.924C215.871 290.828 215.831 290.749 215.751 290.688C215.672 290.625 215.549 290.576 215.383 290.543L214.722 290.412C214.349 290.337 214.072 290.208 213.889 290.024C213.709 289.84 213.618 289.605 213.618 289.32C213.618 289.075 213.685 288.864 213.817 288.686C213.951 288.509 214.14 288.372 214.381 288.276C214.625 288.18 214.91 288.132 215.237 288.132C215.719 288.132 216.098 288.234 216.375 288.438C216.653 288.642 216.816 288.919 216.862 289.271ZM221.307 289.034V289.875H218.985V289.034H221.307ZM224.26 286.909V292H223.184V287.931H223.154L221.988 288.662V287.707L223.249 286.909H224.26ZM228.518 292.075C228.126 292.075 227.79 291.992 227.508 291.826C227.228 291.659 227.013 291.427 226.862 291.13C226.713 290.833 226.638 290.492 226.638 290.106C226.638 289.715 226.714 289.372 226.864 289.077C227.017 288.78 227.233 288.549 227.513 288.383C227.793 288.216 228.126 288.132 228.513 288.132C228.846 288.132 229.137 288.193 229.388 288.314C229.638 288.435 229.836 288.604 229.982 288.823C230.128 289.042 230.208 289.299 230.223 289.594H229.224C229.195 289.403 229.121 289.25 229 289.134C228.88 289.016 228.724 288.957 228.53 288.957C228.366 288.957 228.223 289.002 228.1 289.092C227.979 289.179 227.884 289.308 227.817 289.477C227.749 289.646 227.715 289.851 227.715 290.091C227.715 290.335 227.748 290.542 227.814 290.712C227.882 290.883 227.977 291.013 228.1 291.103C228.223 291.192 228.366 291.237 228.53 291.237C228.651 291.237 228.759 291.212 228.856 291.162C228.953 291.113 229.034 291.04 229.097 290.946C229.161 290.85 229.204 290.735 229.224 290.6H230.223C230.206 290.892 230.127 291.149 229.984 291.371C229.843 291.592 229.649 291.764 229.4 291.888C229.151 292.012 228.857 292.075 228.518 292.075ZM231.806 289.793V292H230.747V286.909H231.776V288.855H231.821C231.907 288.63 232.046 288.454 232.238 288.326C232.431 288.197 232.672 288.132 232.962 288.132C233.227 288.132 233.458 288.19 233.655 288.306C233.854 288.42 234.008 288.585 234.118 288.801C234.229 289.015 234.283 289.271 234.282 289.569V292H233.223V289.758C233.224 289.522 233.165 289.339 233.044 289.208C232.924 289.078 232.757 289.012 232.542 289.012C232.397 289.012 232.27 289.043 232.159 289.104C232.049 289.165 231.963 289.255 231.9 289.373C231.839 289.489 231.807 289.629 231.806 289.793ZM236.05 292.072C235.806 292.072 235.589 292.03 235.398 291.945C235.208 291.859 235.057 291.732 234.946 291.565C234.837 291.396 234.782 291.185 234.782 290.934C234.782 290.721 234.821 290.543 234.899 290.399C234.977 290.255 235.083 290.139 235.217 290.051C235.351 289.963 235.504 289.897 235.674 289.852C235.847 289.808 236.027 289.776 236.216 289.758C236.438 289.735 236.617 289.713 236.753 289.693C236.889 289.672 236.988 289.64 237.049 289.599C237.11 289.557 237.141 289.496 237.141 289.415V289.4C237.141 289.242 237.091 289.121 236.992 289.034C236.894 288.948 236.755 288.905 236.574 288.905C236.384 288.905 236.232 288.947 236.119 289.032C236.007 289.115 235.932 289.219 235.896 289.345L234.916 289.266C234.966 289.034 235.064 288.833 235.21 288.664C235.355 288.493 235.543 288.362 235.774 288.271C236.006 288.179 236.274 288.132 236.579 288.132C236.791 288.132 236.994 288.157 237.188 288.207C237.384 288.256 237.557 288.333 237.708 288.438C237.86 288.542 237.98 288.676 238.068 288.841C238.156 289.003 238.2 289.198 238.2 289.425V292H237.196V291.471H237.166C237.105 291.59 237.023 291.695 236.92 291.786C236.817 291.876 236.694 291.946 236.549 291.998C236.405 292.047 236.239 292.072 236.05 292.072ZM236.353 291.341C236.509 291.341 236.646 291.311 236.766 291.249C236.885 291.186 236.979 291.102 237.047 290.996C237.114 290.89 237.148 290.77 237.148 290.635V290.23C237.115 290.252 237.07 290.272 237.012 290.29C236.955 290.306 236.892 290.322 236.82 290.337C236.749 290.35 236.678 290.363 236.607 290.374C236.535 290.384 236.471 290.393 236.413 290.402C236.288 290.42 236.18 290.449 236.087 290.489C235.994 290.528 235.922 290.582 235.871 290.65C235.819 290.717 235.794 290.799 235.794 290.899C235.794 291.043 235.846 291.153 235.95 291.229C236.056 291.304 236.191 291.341 236.353 291.341ZM238.868 292V288.182H239.877V288.855H239.921C240.001 288.632 240.134 288.455 240.319 288.326C240.505 288.197 240.727 288.132 240.985 288.132C241.247 288.132 241.47 288.198 241.654 288.328C241.838 288.458 241.961 288.633 242.022 288.855H242.062C242.14 288.637 242.281 288.462 242.484 288.331C242.69 288.198 242.933 288.132 243.213 288.132C243.569 288.132 243.858 288.246 244.08 288.473C244.304 288.698 244.416 289.018 244.416 289.432V292H243.359V289.641C243.359 289.429 243.303 289.27 243.19 289.164C243.078 289.058 242.937 289.005 242.768 289.005C242.575 289.005 242.426 289.066 242.318 289.189C242.21 289.31 242.156 289.469 242.156 289.668V292H241.13V289.619C241.13 289.431 241.076 289.282 240.968 289.171C240.862 289.06 240.722 289.005 240.548 289.005C240.43 289.005 240.324 289.034 240.23 289.094C240.137 289.152 240.063 289.234 240.008 289.34C239.954 289.445 239.926 289.567 239.926 289.708V292H238.868ZM245.118 292V286.909H246.177V288.823H246.209C246.256 288.72 246.323 288.616 246.411 288.51C246.5 288.402 246.616 288.313 246.759 288.241C246.903 288.169 247.082 288.132 247.296 288.132C247.574 288.132 247.831 288.205 248.066 288.351C248.302 288.495 248.49 288.713 248.631 289.005C248.771 289.295 248.842 289.658 248.842 290.096C248.842 290.522 248.773 290.881 248.636 291.175C248.5 291.466 248.314 291.688 248.079 291.838C247.845 291.988 247.583 292.062 247.293 292.062C247.088 292.062 246.913 292.028 246.769 291.96C246.626 291.892 246.509 291.807 246.418 291.704C246.327 291.6 246.257 291.495 246.209 291.388H246.162V292H245.118ZM246.155 290.091C246.155 290.318 246.186 290.516 246.249 290.685C246.312 290.854 246.403 290.986 246.523 291.08C246.642 291.173 246.787 291.219 246.958 291.219C247.13 291.219 247.276 291.172 247.395 291.078C247.514 290.982 247.605 290.849 247.666 290.68C247.729 290.509 247.761 290.313 247.761 290.091C247.761 289.871 247.73 289.677 247.669 289.509C247.607 289.342 247.517 289.211 247.398 289.116C247.278 289.022 247.132 288.975 246.958 288.975C246.785 288.975 246.639 289.02 246.52 289.112C246.402 289.203 246.312 289.332 246.249 289.499C246.186 289.667 246.155 289.864 246.155 290.091ZM249.394 292V288.182H250.421V288.848H250.461C250.53 288.611 250.647 288.432 250.811 288.311C250.975 288.188 251.164 288.127 251.378 288.127C251.431 288.127 251.488 288.13 251.55 288.137C251.611 288.144 251.665 288.153 251.711 288.164V289.104C251.662 289.089 251.593 289.076 251.505 289.064C251.417 289.053 251.337 289.047 251.264 289.047C251.108 289.047 250.969 289.081 250.846 289.149C250.725 289.215 250.629 289.308 250.558 289.427C250.488 289.547 250.453 289.684 250.453 289.84V292H249.394ZM253.667 292.075C253.274 292.075 252.936 291.995 252.653 291.836C252.371 291.675 252.154 291.448 252.002 291.155C251.849 290.86 251.773 290.511 251.773 290.108C251.773 289.716 251.849 289.371 252.002 289.074C252.154 288.778 252.369 288.546 252.645 288.381C252.924 288.215 253.25 288.132 253.625 288.132C253.877 288.132 254.111 288.173 254.328 288.254C254.547 288.333 254.738 288.454 254.9 288.614C255.064 288.775 255.192 288.977 255.283 289.221C255.374 289.463 255.42 289.746 255.42 290.071V290.362H252.195V289.706H254.423C254.423 289.553 254.39 289.418 254.323 289.3C254.257 289.183 254.165 289.091 254.047 289.025C253.931 288.957 253.796 288.923 253.642 288.923C253.481 288.923 253.339 288.96 253.215 289.034C253.092 289.107 252.996 289.206 252.926 289.33C252.857 289.453 252.821 289.59 252.819 289.74V290.364C252.819 290.553 252.854 290.717 252.924 290.854C252.995 290.992 253.095 291.098 253.225 291.172C253.354 291.247 253.507 291.284 253.684 291.284C253.802 291.284 253.91 291.268 254.008 291.234C254.105 291.201 254.189 291.152 254.259 291.085C254.328 291.019 254.381 290.938 254.418 290.842L255.397 290.906C255.347 291.142 255.246 291.347 255.091 291.523C254.939 291.697 254.742 291.833 254.5 291.93C254.259 292.027 253.982 292.075 253.667 292.075ZM259.133 289.271L258.164 289.33C258.147 289.247 258.112 289.173 258.057 289.107C258.002 289.039 257.93 288.985 257.841 288.945C257.753 288.904 257.648 288.883 257.525 288.883C257.361 288.883 257.223 288.918 257.11 288.987C256.997 289.055 256.941 289.146 256.941 289.261C256.941 289.352 256.977 289.429 257.05 289.492C257.123 289.555 257.248 289.605 257.426 289.643L258.117 289.783C258.488 289.859 258.765 289.982 258.947 290.151C259.129 290.32 259.22 290.542 259.22 290.817C259.22 291.067 259.147 291.287 258.999 291.475C258.853 291.664 258.653 291.812 258.398 291.918C258.144 292.022 257.852 292.075 257.52 292.075C257.015 292.075 256.612 291.969 256.312 291.759C256.014 291.547 255.839 291.258 255.788 290.894L256.829 290.839C256.861 290.993 256.937 291.111 257.058 291.192C257.179 291.272 257.334 291.311 257.523 291.311C257.708 291.311 257.857 291.276 257.97 291.205C258.084 291.132 258.142 291.038 258.144 290.924C258.142 290.828 258.102 290.749 258.022 290.688C257.943 290.625 257.82 290.576 257.654 290.543L256.993 290.412C256.62 290.337 256.343 290.208 256.16 290.024C255.98 289.84 255.889 289.605 255.889 289.32C255.889 289.075 255.956 288.864 256.088 288.686C256.223 288.509 256.411 288.372 256.653 288.276C256.896 288.18 257.181 288.132 257.508 288.132C257.99 288.132 258.369 288.234 258.646 288.438C258.925 288.642 259.087 288.919 259.133 289.271ZM263.578 289.034V289.875H261.257V289.034H263.578ZM267.625 286.839C267.887 286.839 268.139 286.883 268.38 286.971C268.624 287.059 268.841 287.199 269.032 287.391C269.224 287.584 269.376 287.839 269.487 288.157C269.599 288.473 269.656 288.862 269.658 289.323C269.658 289.755 269.609 290.141 269.511 290.481C269.415 290.819 269.277 291.107 269.096 291.344C268.916 291.581 268.698 291.761 268.443 291.886C268.187 292.008 267.902 292.07 267.587 292.07C267.248 292.07 266.948 292.004 266.688 291.873C266.427 291.741 266.218 291.561 266.059 291.334C265.901 291.105 265.806 290.848 265.773 290.563H266.834C266.876 290.749 266.963 290.893 267.095 290.996C267.228 291.097 267.392 291.147 267.587 291.147C267.919 291.147 268.171 291.003 268.343 290.715C268.516 290.425 268.603 290.028 268.604 289.524H268.569C268.493 289.673 268.39 289.802 268.261 289.909C268.132 290.016 267.984 290.098 267.816 290.156C267.65 290.214 267.474 290.243 267.287 290.243C266.987 290.243 266.719 290.172 266.484 290.031C266.248 289.89 266.063 289.696 265.927 289.45C265.791 289.203 265.723 288.921 265.723 288.604C265.721 288.263 265.8 287.959 265.959 287.692C266.118 287.425 266.34 287.217 266.625 287.066C266.912 286.913 267.245 286.838 267.625 286.839ZM267.632 287.685C267.465 287.685 267.316 287.724 267.185 287.804C267.056 287.884 266.953 287.99 266.877 288.125C266.802 288.259 266.766 288.409 266.767 288.575C266.767 288.742 266.804 288.893 266.877 289.027C266.951 289.16 267.052 289.266 267.18 289.345C267.309 289.423 267.457 289.462 267.622 289.462C267.747 289.462 267.862 289.439 267.968 289.392C268.074 289.346 268.166 289.282 268.244 289.201C268.323 289.118 268.385 289.023 268.43 288.915C268.475 288.807 268.497 288.693 268.497 288.572C268.496 288.411 268.458 288.264 268.383 288.13C268.308 287.995 268.206 287.888 268.075 287.806C267.944 287.725 267.796 287.685 267.632 287.685ZM270.26 292V288.182H271.269V288.855H271.314C271.393 288.632 271.526 288.455 271.712 288.326C271.897 288.197 272.119 288.132 272.378 288.132C272.64 288.132 272.862 288.198 273.046 288.328C273.23 288.458 273.353 288.633 273.414 288.855H273.454C273.532 288.637 273.673 288.462 273.877 288.331C274.082 288.198 274.325 288.132 274.605 288.132C274.961 288.132 275.25 288.246 275.473 288.473C275.696 288.698 275.808 289.018 275.808 289.432V292H274.752V289.641C274.752 289.429 274.695 289.27 274.583 289.164C274.47 289.058 274.329 289.005 274.16 289.005C273.968 289.005 273.818 289.066 273.71 289.189C273.602 289.31 273.549 289.469 273.549 289.668V292H272.522V289.619C272.522 289.431 272.468 289.282 272.36 289.171C272.254 289.06 272.114 289.005 271.94 289.005C271.823 289.005 271.717 289.034 271.622 289.094C271.529 289.152 271.456 289.234 271.401 289.34C271.346 289.445 271.319 289.567 271.319 289.708V292H270.26ZM276.374 289.455V288.905L277.584 287.938C277.677 287.862 277.758 287.793 277.825 287.732C277.893 287.671 277.946 287.608 277.985 287.545C278.023 287.482 278.042 287.413 278.042 287.337C278.042 287.217 277.993 287.125 277.895 287.061C277.797 286.996 277.679 286.964 277.54 286.964C277.39 286.964 277.27 287 277.179 287.073C277.09 287.144 277.045 287.248 277.045 287.384H276.312C276.312 287.066 276.428 286.816 276.66 286.636C276.892 286.453 277.188 286.362 277.55 286.362C277.796 286.362 278.011 286.405 278.193 286.491C278.376 286.576 278.517 286.691 278.616 286.837C278.717 286.983 278.768 287.146 278.768 287.327C278.768 287.473 278.737 287.608 278.676 287.734C278.616 287.859 278.523 287.981 278.397 288.102C278.273 288.222 278.112 288.347 277.915 288.478L277.472 288.806V288.833H278.802V289.455H276.374Z" fill="black"/>
</g>
<defs>
<clipPath id="clip0_5_9">
<rect width="390" height="844" fill="white"/>
</clipPath>
<clipPath id="clip1_5_9">
<rect width="290" height="40" fill="white" transform="translate(45 31)"/>
</clipPath>
</defs>
</svg>
