<svg width="390" height="844" viewBox="0 0 390 844" fill="none" xmlns="http://www.w3.org/2000/svg">
<rect width="390" height="844" fill="white"/>
<path d="M20 742H370C380.493 742 389 750.507 389 761V821C389 831.493 380.493 840 370 840H20C9.50659 840 1 831.493 1 821V761C1 750.507 9.50659 742 20 742Z" fill="#ECF0F3" stroke="black" stroke-width="2"/>
<path d="M39 770H44C54.4934 770 63 778.507 63 789V794C63 804.493 54.4934 813 44 813H39C28.5066 813 20 804.493 20 794V789C20 778.507 28.5066 770 39 770Z" stroke="black" stroke-width="2"/>
<path d="M38.2354 782.109C39.7818 780.63 42.2182 780.63 43.7646 782.109L49.7646 787.848C50.5535 788.603 51 789.647 51 790.739V797.465L50.9951 797.671C50.8913 799.716 49.2512 801.356 47.2061 801.46L47 801.465H35L34.7939 801.46C32.7488 801.356 31.1087 799.716 31.0049 797.671L31 797.465V790.739C31 789.716 31.3918 788.733 32.0908 787.993L32.2354 787.848L38.2354 782.109ZM42.3828 783.554C41.6579 782.861 40.5414 782.818 39.7676 783.425L39.6172 783.554L33.6172 789.294C33.2229 789.671 33 790.193 33 790.739V797.465C33 798.569 33.8955 799.465 35 799.465H37.5352C37.227 798.932 37.0379 798.322 37.0049 797.671L37 797.465V795.734C37.0001 794.64 37.4482 793.597 38.2344 792.844L38.3955 792.698C39.8938 791.413 42.1062 791.413 43.6045 792.698C44.4903 793.458 44.9999 794.567 45 795.734V797.465L44.9951 797.671C44.9621 798.322 44.773 798.932 44.4648 799.465H47C48.1045 799.465 49 798.569 49 797.465V790.739C49 790.193 48.7771 789.671 48.3828 789.294L42.3828 783.554ZM42.3018 794.217C41.5995 793.614 40.5842 793.576 39.8428 794.103L39.6982 794.217C39.2554 794.596 39.0001 795.151 39 795.734V797.465C39 798.569 39.8954 799.465 41 799.465C42.1046 799.465 43 798.569 43 797.465V795.734C42.9999 795.224 42.8045 794.736 42.459 794.367L42.3018 794.217Z" fill="black"/>
<path d="M347 770H352C362.493 770 371 778.507 371 789V794C371 804.493 362.493 813 352 813H347C336.507 813 328 804.493 328 794V789C328 778.507 336.507 770 347 770Z" stroke="black" stroke-width="2"/>
<path d="M339 798.625C339 797.365 339.527 796.157 340.464 795.266C341.402 794.375 342.674 793.875 344 793.875H354C355.326 793.875 356.598 794.375 357.536 795.266C358.473 796.157 359 797.365 359 798.625C359 799.255 358.737 799.859 358.268 800.304C357.799 800.75 357.163 801 356.5 801H341.5C340.837 801 340.201 800.75 339.732 800.304C339.263 799.859 339 799.255 339 798.625Z" stroke="black" stroke-linejoin="round"/>
<path d="M349 789.125C351.071 789.125 352.75 787.53 352.75 785.562C352.75 783.595 351.071 782 349 782C346.929 782 345.25 783.595 345.25 785.562C345.25 787.53 346.929 789.125 349 789.125Z" stroke="black"/>
<path d="M270 770H275C285.493 770 294 778.507 294 789V794C294 804.493 285.493 813 275 813H270C259.507 813 251 804.493 251 794V789C251 778.507 259.507 770 270 770Z" stroke="black" stroke-width="2"/>
<path fill-rule="evenodd" clip-rule="evenodd" d="M279.482 793.118C280.159 792.43 280.536 791.501 280.528 790.535C280.521 789.569 280.13 788.646 279.441 787.968C279.101 787.633 278.697 787.367 278.254 787.188C277.81 787.008 277.336 786.918 276.858 786.922C275.892 786.929 274.969 787.32 274.291 788.008C274.107 788.192 273.873 788.418 273.59 788.686L272.801 789.429L272.012 788.686C271.728 788.418 271.494 788.192 271.31 788.008C270.627 787.325 269.701 786.942 268.735 786.942C267.769 786.942 266.843 787.325 266.16 788.008C264.753 789.416 264.737 791.692 266.108 793.107L272.801 799.8L279.482 793.118ZM265.346 787.196C265.791 786.751 266.319 786.398 266.901 786.157C267.482 785.916 268.106 785.792 268.735 785.792C269.364 785.792 269.987 785.916 270.569 786.157C271.15 786.398 271.679 786.751 272.124 787.196C272.298 787.371 272.524 787.589 272.801 787.849C273.077 787.589 273.303 787.37 273.479 787.195C274.37 786.289 275.585 785.775 276.856 785.765C278.127 785.756 279.35 786.251 280.255 787.143C281.16 788.035 281.675 789.25 281.684 790.52C281.694 791.791 281.198 793.014 280.307 793.919L273.479 800.748C273.299 800.928 273.055 801.029 272.801 801.029C272.547 801.029 272.303 800.928 272.124 800.748L265.293 793.918C264.418 793.015 263.932 791.803 263.942 790.545C263.952 789.287 264.456 788.083 265.346 787.194V787.196Z" fill="black"/>
<rect x="174" y="770" width="43" height="43" rx="19" stroke="black" stroke-width="2"/>
<path fill-rule="evenodd" clip-rule="evenodd" d="M193 785C193 784.47 193.211 783.961 193.586 783.586C193.961 783.211 194.47 783 195 783H197C197.53 783 198.039 783.211 198.414 783.586C198.789 783.961 199 784.47 199 785V789H203C203.53 789 204.039 789.211 204.414 789.586C204.789 789.961 205 790.47 205 791V793C205 793.53 204.789 794.039 204.414 794.414C204.039 794.789 203.53 795 203 795H199V799C199 799.53 198.789 800.039 198.414 800.414C198.039 800.789 197.53 801 197 801H195C194.47 801 193.961 800.789 193.586 800.414C193.211 800.039 193 799.53 193 799V795H189C188.47 795 187.961 794.789 187.586 794.414C187.211 794.039 187 793.53 187 793V791C187 790.47 187.211 789.961 187.586 789.586C187.961 789.211 188.47 789 189 789H193V785ZM197 785H195V790C195 790.265 194.895 790.52 194.707 790.707C194.52 790.895 194.265 791 194 791H189V793H194C194.265 793 194.52 793.105 194.707 793.293C194.895 793.48 195 793.735 195 794V799H197V794C197 793.735 197.105 793.48 197.293 793.293C197.48 793.105 197.735 793 198 793H203V791H198C197.735 791 197.48 790.895 197.293 790.707C197.105 790.52 197 790.265 197 790V785Z" fill="black"/>
<rect x="97" y="770" width="43" height="43" rx="19" stroke="black" stroke-width="2"/>
<path d="M110.833 784.833H126.167V796.333H111.954L110.833 797.455V784.833ZM110.833 782.917C109.779 782.917 108.926 783.779 108.926 784.833L108.917 802.083L112.75 798.25H126.167C127.221 798.25 128.083 797.387 128.083 796.333V784.833C128.083 783.779 127.221 782.917 126.167 782.917H110.833ZM112.75 792.5H124.25V794.417H112.75V792.5ZM112.75 789.625H124.25V791.542H112.75V789.625ZM112.75 786.75H124.25V788.667H112.75V786.75Z" fill="black"/>
<rect x="47" y="57" width="295" height="295" rx="40" fill="#9CABC2" fill-opacity="0.35"/>
<rect x="48" y="58" width="293" height="293" rx="39" stroke="#9CABC2" stroke-opacity="0.35" stroke-width="2"/>
<g clip-path="url(#clip0_40_264)">
<rect x="40" y="383" width="295" height="3" fill="#9CABC2"/>
<rect x="73" y="398" width="229" height="3" fill="#9CABC2"/>
<rect x="40" y="413" width="295" height="3" fill="#9CABC2"/>
<rect x="73" y="428" width="229" height="3" fill="#9CABC2"/>
<rect x="40" y="443" width="295" height="3" fill="#9CABC2"/>
<rect x="73" y="458" width="229" height="3" fill="#9CABC2"/>
</g>
<rect x="45" y="493" width="283" height="48" rx="9" stroke="black" stroke-width="2"/>
<rect x="118" y="562" width="155" height="10" rx="5" fill="#D9D9D9"/>
<rect x="75" y="660" width="241" height="10" rx="5" fill="#D9D9D9"/>
<rect x="146.5" y="603.5" width="89" height="30" rx="15" fill="white" stroke="black"/>
<rect x="166" y="618" width="49" height="1" fill="#D9D9D9"/>
<rect x="262.5" y="603.5" width="89" height="30" rx="15" fill="white" stroke="black"/>
<rect x="279" y="618" width="49" height="1" fill="#D9D9D9"/>
<rect x="27.5" y="603.5" width="89" height="30" rx="15" fill="white" stroke="black"/>
<rect x="44" y="618" width="49" height="1" fill="#D9D9D9"/>
<rect x="251" y="692" width="128" height="42" rx="21" fill="black" stroke="black" stroke-width="2"/>
<rect x="279" y="708" width="78" height="10" rx="5" fill="#D9D9D9"/>
<rect x="23" y="25" width="43" height="43" rx="19" stroke="black" stroke-width="2"/>
<path d="M54 45C54.5523 45 55 45.4477 55 46C55 46.5523 54.5523 47 54 47V45ZM33.2929 46.7071C32.9024 46.3166 32.9024 45.6834 33.2929 45.2929L39.6569 38.9289C40.0474 38.5384 40.6805 38.5384 41.0711 38.9289C41.4616 39.3195 41.4616 39.9526 41.0711 40.3431L35.4142 46L41.0711 51.6569C41.4616 52.0474 41.4616 52.6805 41.0711 53.0711C40.6805 53.4616 40.0474 53.4616 39.6569 53.0711L33.2929 46.7071ZM54 46V47H34V46V45H54V46Z" fill="black"/>
<defs>
<clipPath id="clip0_40_264">
<rect width="295" height="78" fill="white" transform="translate(40 383)"/>
</clipPath>
</defs>
</svg>
