<svg width="390" height="844" viewBox="0 0 390 844" fill="none" xmlns="http://www.w3.org/2000/svg">
<g clip-path="url(#clip0_61_3421)">
<rect width="390" height="844" fill="white"/>
<rect x="40.5" y="132.5" width="309" height="36" rx="18" fill="white" stroke="black"/>
<rect x="36.5" y="229.5" width="309" height="36" rx="18" fill="white" stroke="black"/>
<rect x="60" y="247" width="150" height="1" fill="#D9D9D9"/>
<rect x="60" y="150" width="150" height="1" fill="#D9D9D9"/>
<rect x="41.5" y="423.5" width="309" height="36" rx="18" fill="white" stroke="black"/>
<rect x="120" y="441" width="150" height="1" fill="#D9D9D9"/>
<rect x="120" y="441" width="150" height="1" fill="#D9D9D9"/>
<rect x="60" y="441" width="150" height="1" fill="#D9D9D9"/>
<rect x="-22.75" y="71.25" width="435.5" height="0.5" fill="#545454" stroke="#868686" stroke-width="0.5"/>
<rect x="150.5" y="325.5" width="89" height="30" rx="15" fill="white" stroke="black"/>
<rect x="170" y="340" width="49" height="1" fill="#D9D9D9"/>
<rect x="266.5" y="325.5" width="89" height="30" rx="15" fill="white" stroke="black"/>
<rect x="283" y="340" width="49" height="1" fill="#D9D9D9"/>
<rect x="31.5" y="325.5" width="89" height="30" rx="15" fill="white" stroke="black"/>
<rect x="48" y="340" width="49" height="1" fill="#D9D9D9"/>
<rect x="40.5" y="528.5" width="309" height="36" rx="18" fill="white" stroke="black"/>
<rect x="40.5" y="528.5" width="309" height="36" rx="18" fill="white" stroke="black"/>
<rect x="40.5" y="528.5" width="309" height="36" rx="18" fill="white" stroke="black"/>
<rect x="60" y="546" width="150" height="1" fill="#D9D9D9"/>
<rect x="69" y="441" width="150" height="1" fill="#D9D9D9"/>
<rect x="41.5" y="625.5" width="309" height="36" rx="18" fill="white" stroke="black"/>
<rect x="41.5" y="625.5" width="309" height="36" rx="18" fill="white" stroke="black"/>
<rect x="41.5" y="625.5" width="309" height="36" rx="18" fill="white" stroke="black"/>
<rect x="60" y="643" width="150" height="1" fill="#D9D9D9"/>
<path d="M325 641L330 646L335 641" stroke="black" stroke-width="2" stroke-linecap="round" stroke-linejoin="round"/>
<path d="M62.5 692.5H313.5C325.098 692.5 334.5 701.902 334.5 713.5C334.5 725.098 325.098 734.5 313.5 734.5H62.5C50.902 734.5 41.5 725.098 41.5 713.5C41.5 701.902 50.902 692.5 62.5 692.5Z" stroke="#1651BE" stroke-width="2"/>
<path d="M21 745H371C381.493 745 390 753.507 390 764V843H2V764C2 753.507 10.5066 745 21 745Z" fill="#ECF0F3" stroke="black" stroke-width="2"/>
<path d="M66 773H71C81.4934 773 90 781.507 90 792V797C90 807.493 81.4934 816 71 816H66C55.5066 816 47 807.493 47 797V792C47 781.507 55.5066 773 66 773Z" stroke="black" stroke-width="2"/>
<path d="M65.2354 785.109C66.7818 783.63 69.2182 783.63 70.7646 785.109L76.7646 790.848C77.5535 791.603 78 792.647 78 793.739V800.465L77.9951 800.671C77.8913 802.716 76.2512 804.356 74.2061 804.46L74 804.465H62L61.7939 804.46C59.7488 804.356 58.1087 802.716 58.0049 800.671L58 800.465V793.739C58 792.716 58.3918 791.734 59.0908 790.993L59.2354 790.848L65.2354 785.109ZM69.3828 786.555C68.6579 785.861 67.5414 785.818 66.7676 786.425L66.6172 786.555L60.6172 792.294C60.2229 792.671 60 793.193 60 793.739V800.465C60 801.569 60.8955 802.465 62 802.465H64.5352C64.227 801.932 64.0379 801.322 64.0049 800.671L64 800.465V798.734C64.0001 797.64 64.4482 796.597 65.2344 795.845L65.3955 795.698C66.8938 794.413 69.1062 794.413 70.6045 795.698C71.4903 796.458 71.9999 797.567 72 798.734V800.465L71.9951 800.671C71.9621 801.322 71.773 801.932 71.4648 802.465H74C75.1045 802.465 76 801.569 76 800.465V793.739C76 793.193 75.7771 792.671 75.3828 792.294L69.3828 786.555ZM69.3018 797.217C68.5995 796.614 67.5842 796.577 66.8428 797.103L66.6982 797.217C66.2554 797.597 66.0001 798.151 66 798.734V800.465C66 801.569 66.8954 802.465 68 802.465C69.1046 802.465 70 801.569 70 800.465V798.734C69.9999 798.224 69.8045 797.736 69.459 797.367L69.3018 797.217Z" fill="black"/>
<path d="M321 773H326C336.493 773 345 781.507 345 792V797C345 807.493 336.493 816 326 816H321C310.507 816 302 807.493 302 797V792C302 781.507 310.507 773 321 773Z" stroke="black" stroke-width="2"/>
<path d="M313 801.625C313 800.365 313.527 799.157 314.464 798.266C315.402 797.375 316.674 796.875 318 796.875H328C329.326 796.875 330.598 797.375 331.536 798.266C332.473 799.157 333 800.365 333 801.625C333 802.255 332.737 802.859 332.268 803.304C331.799 803.75 331.163 804 330.5 804H315.5C314.837 804 314.201 803.75 313.732 803.304C313.263 802.859 313 802.255 313 801.625Z" stroke="black" stroke-linejoin="round"/>
<path d="M323 792.125C325.071 792.125 326.75 790.53 326.75 788.562C326.75 786.595 325.071 785 323 785C320.929 785 319.25 786.595 319.25 788.562C319.25 790.53 320.929 792.125 323 792.125Z" stroke="black"/>
<path d="M236 773H241C251.493 773 260 781.507 260 792V797C260 807.493 251.493 816 241 816H236C225.507 816 217 807.493 217 797V792C217 781.507 225.507 773 236 773Z" stroke="black" stroke-width="2"/>
<path fill-rule="evenodd" clip-rule="evenodd" d="M245.481 796.118C246.159 795.43 246.535 794.5 246.528 793.535C246.52 792.569 246.129 791.646 245.441 790.968C245.1 790.632 244.697 790.367 244.254 790.188C243.81 790.008 243.336 789.918 242.858 789.921C241.892 789.929 240.969 790.32 240.291 791.008C240.107 791.192 239.873 791.418 239.59 791.686L238.801 792.428L238.012 791.686C237.728 791.417 237.494 791.192 237.31 791.008C236.627 790.325 235.7 789.942 234.735 789.942C233.769 789.942 232.843 790.325 232.16 791.008C230.753 792.416 230.736 794.692 232.108 796.107L238.801 802.8L245.481 796.118ZM231.346 790.196C231.791 789.75 232.319 789.397 232.901 789.157C233.482 788.916 234.105 788.792 234.735 788.792C235.364 788.792 235.987 788.916 236.569 789.157C237.15 789.397 237.678 789.75 238.123 790.196C238.298 790.371 238.524 790.588 238.801 790.849C239.077 790.588 239.303 790.37 239.478 790.195C240.37 789.289 241.585 788.775 242.856 788.765C244.127 788.756 245.349 789.251 246.255 790.143C247.16 791.035 247.674 792.249 247.684 793.52C247.694 794.791 247.198 796.014 246.306 796.919L239.478 803.748C239.299 803.928 239.055 804.029 238.801 804.029C238.547 804.029 238.303 803.928 238.123 803.748L231.293 796.918C230.417 796.015 229.932 794.803 229.942 793.545C229.952 792.287 230.456 791.083 231.346 790.194V790.196Z" fill="black"/>
<rect x="132" y="773" width="43" height="43" rx="19" stroke="black" stroke-width="2"/>
<path d="M145.833 787.833H161.167V799.333H146.955L145.833 800.455V787.833ZM145.833 785.917C144.779 785.917 143.926 786.779 143.926 787.833L143.917 805.083L147.75 801.25H161.167C162.221 801.25 163.083 800.388 163.083 799.333V787.833C163.083 786.779 162.221 785.917 161.167 785.917H145.833ZM147.75 795.5H159.25V797.417H147.75V795.5ZM147.75 792.625H159.25V794.542H147.75V792.625ZM147.75 789.75H159.25V791.667H147.75V789.75Z" fill="black"/>
<rect x="4" y="10" width="43" height="43" rx="19" stroke="black" stroke-width="2"/>
<path d="M35 30C35.5523 30 36 30.4477 36 31C36 31.5523 35.5523 32 35 32V30ZM14.2929 31.7071C13.9024 31.3166 13.9024 30.6834 14.2929 30.2929L20.6569 23.9289C21.0474 23.5384 21.6805 23.5384 22.0711 23.9289C22.4616 24.3195 22.4616 24.9526 22.0711 25.3431L16.4142 31L22.0711 36.6569C22.4616 37.0474 22.4616 37.6805 22.0711 38.0711C21.6805 38.4616 21.0474 38.4616 20.6569 38.0711L14.2929 31.7071ZM35 31V32H15V31V30H35V31Z" fill="black"/>
<path d="M61.5442 91.4545V106H58.888L52.5599 96.8452H52.4533V106H49.378V91.4545H52.0769L58.3553 100.602H58.4831V91.4545H61.5442ZM77.0115 98.7273C77.0115 100.313 76.7109 101.663 76.1096 102.776C75.513 103.888 74.6986 104.738 73.6664 105.325C72.6389 105.908 71.4836 106.199 70.2005 106.199C68.9078 106.199 67.7478 105.905 66.7203 105.318C65.6929 104.731 64.8809 103.881 64.2843 102.768C63.6877 101.656 63.3894 100.309 63.3894 98.7273C63.3894 97.1411 63.6877 95.7917 64.2843 94.679C64.8809 93.5663 65.6929 92.7187 66.7203 92.1364C67.7478 91.5492 68.9078 91.2557 70.2005 91.2557C71.4836 91.2557 72.6389 91.5492 73.6664 92.1364C74.6986 92.7187 75.513 93.5663 76.1096 94.679C76.7109 95.7917 77.0115 97.1411 77.0115 98.7273ZM73.8936 98.7273C73.8936 97.6998 73.7398 96.8333 73.432 96.1278C73.129 95.4223 72.7005 94.8873 72.1465 94.5227C71.5925 94.1581 70.9438 93.9759 70.2005 93.9759C69.4571 93.9759 68.8084 94.1581 68.2544 94.5227C67.7005 94.8873 67.2696 95.4223 66.9618 96.1278C66.6588 96.8333 66.5073 97.6998 66.5073 98.7273C66.5073 99.7547 66.6588 100.621 66.9618 101.327C67.2696 102.032 67.7005 102.567 68.2544 102.932C68.8084 103.296 69.4571 103.479 70.2005 103.479C70.9438 103.479 71.5925 103.296 72.1465 102.932C72.7005 102.567 73.129 102.032 73.432 101.327C73.7398 100.621 73.8936 99.7547 73.8936 98.7273ZM78.8496 91.4545H82.6422L86.6479 101.227H86.8183L90.824 91.4545H94.6166V106H91.6337V96.5327H91.5129L87.7487 105.929H85.7175L81.9533 96.4972H81.8326V106H78.8496V91.4545Z" fill="black"/>
<path d="M40.6005 206V191.455H46.3392C47.4424 191.455 48.3823 191.665 49.1588 192.087C49.9353 192.503 50.5271 193.083 50.9343 193.827C51.3463 194.565 51.5522 195.418 51.5522 196.384C51.5522 197.349 51.3439 198.202 50.9272 198.94C50.5106 199.679 49.9069 200.254 49.1162 200.666C48.3302 201.078 47.3785 201.284 46.261 201.284H42.6034V198.82H45.7639C46.3557 198.82 46.8434 198.718 47.227 198.514C47.6152 198.306 47.904 198.019 48.0934 197.655C48.2876 197.286 48.3846 196.862 48.3846 196.384C48.3846 195.901 48.2876 195.479 48.0934 195.119C47.904 194.755 47.6152 194.473 47.227 194.274C46.8387 194.071 46.3463 193.969 45.7497 193.969H43.6758V206H40.6005ZM53.0529 206V195.091H55.9862V196.994H56.0998C56.2987 196.317 56.6325 195.806 57.1012 195.46C57.57 195.11 58.1098 194.935 58.7205 194.935C58.8721 194.935 59.0354 194.944 59.2106 194.963C59.3858 194.982 59.5397 195.008 59.6723 195.041V197.726C59.5302 197.683 59.3337 197.645 59.0828 197.612C58.8318 197.579 58.6022 197.562 58.3938 197.562C57.9488 197.562 57.551 197.66 57.2007 197.854C56.855 198.043 56.5804 198.308 56.3768 198.649C56.1779 198.99 56.0785 199.383 56.0785 199.828V206H53.0529ZM65.2603 206.213C64.1381 206.213 63.1722 205.986 62.3626 205.531C61.5577 205.072 60.9374 204.423 60.5018 203.585C60.0662 202.742 59.8484 201.746 59.8484 200.595C59.8484 199.473 60.0662 198.488 60.5018 197.641C60.9374 196.793 61.5506 196.133 62.3413 195.659C63.1367 195.186 64.0695 194.949 65.1396 194.949C65.8593 194.949 66.5292 195.065 67.1495 195.297C67.7745 195.524 68.319 195.867 68.783 196.327C69.2518 196.786 69.6164 197.364 69.8768 198.06C70.1372 198.751 70.2674 199.561 70.2674 200.489V201.32H61.0558V199.445H67.4194C67.4194 199.009 67.3247 198.623 67.1353 198.287C66.9459 197.951 66.6831 197.688 66.347 197.499C66.0155 197.304 65.6296 197.207 65.1893 197.207C64.73 197.207 64.3228 197.314 63.9677 197.527C63.6173 197.735 63.3427 198.017 63.1438 198.372C62.945 198.723 62.8432 199.113 62.8384 199.544V201.327C62.8384 201.866 62.9379 202.333 63.1367 202.726C63.3403 203.119 63.6268 203.422 63.9961 203.635C64.3654 203.848 64.8034 203.955 65.31 203.955C65.6462 203.955 65.954 203.907 66.2333 203.812C66.5127 203.718 66.7518 203.576 66.9506 203.386C67.1495 203.197 67.301 202.965 67.4052 202.69L70.2035 202.875C70.0614 203.547 69.7702 204.134 69.3299 204.636C68.8943 205.134 68.3309 205.522 67.6396 205.801C66.953 206.076 66.1599 206.213 65.2603 206.213ZM63.9819 193.685L65.4876 190.453H68.2859L66.1197 193.685H63.9819ZM74.8274 199.693V206H71.8018V195.091H74.6854V197.016H74.8132C75.0547 196.381 75.4595 195.879 76.0277 195.51C76.5959 195.136 77.2848 194.949 78.0945 194.949C78.852 194.949 79.5125 195.115 80.076 195.446C80.6394 195.777 81.0774 196.251 81.3899 196.866C81.7024 197.477 81.8587 198.206 81.8587 199.054V206H78.8331V199.594C78.8378 198.926 78.6674 198.405 78.3217 198.031C77.9761 197.652 77.5002 197.463 76.8942 197.463C76.487 197.463 76.1271 197.551 75.8146 197.726C75.5069 197.901 75.2654 198.157 75.0902 198.493C74.9197 198.824 74.8321 199.224 74.8274 199.693ZM88.7322 206.213C87.629 206.213 86.6749 205.979 85.87 205.51C85.0698 205.036 84.4519 204.378 84.0163 203.536C83.5807 202.688 83.3629 201.705 83.3629 200.588C83.3629 199.461 83.5807 198.476 84.0163 197.634C84.4519 196.786 85.0698 196.128 85.87 195.659C86.6749 195.186 87.629 194.949 88.7322 194.949C89.8354 194.949 90.7871 195.186 91.5873 195.659C92.3923 196.128 93.0125 196.786 93.4481 197.634C93.8837 198.476 94.1015 199.461 94.1015 200.588C94.1015 201.705 93.8837 202.688 93.4481 203.536C93.0125 204.378 92.3923 205.036 91.5873 205.51C90.7871 205.979 89.8354 206.213 88.7322 206.213ZM88.7464 203.869C89.2483 203.869 89.6674 203.727 90.0035 203.443C90.3397 203.154 90.593 202.761 90.7635 202.264C90.9387 201.767 91.0263 201.201 91.0263 200.567C91.0263 199.932 90.9387 199.366 90.7635 198.869C90.593 198.372 90.3397 197.979 90.0035 197.69C89.6674 197.402 89.2483 197.257 88.7464 197.257C88.2398 197.257 87.8137 197.402 87.468 197.69C87.1271 197.979 86.8691 198.372 86.6939 198.869C86.5234 199.366 86.4382 199.932 86.4382 200.567C86.4382 201.201 86.5234 201.767 86.6939 202.264C86.8691 202.761 87.1271 203.154 87.468 203.443C87.8137 203.727 88.2398 203.869 88.7464 203.869ZM95.6289 206V195.091H98.5124V197.016H98.6402C98.8675 196.376 99.2463 195.872 99.7766 195.503C100.307 195.134 100.941 194.949 101.68 194.949C102.428 194.949 103.065 195.136 103.591 195.51C104.116 195.879 104.466 196.381 104.642 197.016H104.755C104.978 196.391 105.38 195.891 105.963 195.517C106.55 195.138 107.243 194.949 108.044 194.949C109.062 194.949 109.888 195.273 110.522 195.922C111.162 196.566 111.481 197.48 111.481 198.663V206H108.463V199.26C108.463 198.654 108.302 198.199 107.98 197.896C107.658 197.593 107.255 197.442 106.772 197.442C106.223 197.442 105.795 197.617 105.487 197.967C105.179 198.313 105.025 198.77 105.025 199.338V206H102.092V199.196C102.092 198.661 101.938 198.235 101.63 197.918C101.327 197.6 100.927 197.442 100.43 197.442C100.094 197.442 99.7908 197.527 99.5209 197.697C99.2558 197.863 99.0451 198.098 98.8888 198.401C98.7326 198.699 98.6544 199.049 98.6544 199.452V206H95.6289Z" fill="black"/>
<path d="M42.753 303H37.5967V288.455H42.7956C44.2586 288.455 45.5181 288.746 46.574 289.328C47.6298 289.906 48.4419 290.737 49.0101 291.821C49.583 292.905 49.8694 294.203 49.8694 295.713C49.8694 297.228 49.583 298.53 49.0101 299.619C48.4419 300.708 47.6251 301.544 46.5598 302.126C45.4992 302.709 44.2302 303 42.753 303ZM40.672 300.365H42.6251C43.5342 300.365 44.2989 300.204 44.9191 299.882C45.5441 299.555 46.0129 299.051 46.3254 298.369C46.6426 297.683 46.8012 296.797 46.8012 295.713C46.8012 294.638 46.6426 293.76 46.3254 293.078C46.0129 292.396 45.5465 291.894 44.9262 291.572C44.306 291.25 43.5413 291.089 42.6322 291.089H40.672V300.365ZM54.7615 303.206C54.0654 303.206 53.4452 303.085 52.9007 302.844C52.3562 302.598 51.9253 302.235 51.6081 301.757C51.2956 301.274 51.1393 300.673 51.1393 299.953C51.1393 299.347 51.2506 298.838 51.4731 298.426C51.6956 298.014 51.9987 297.683 52.3822 297.432C52.7657 297.181 53.2013 296.991 53.689 296.864C54.1814 296.736 54.6975 296.646 55.2373 296.594C55.8718 296.527 56.3831 296.466 56.7714 296.409C57.1597 296.348 57.4414 296.258 57.6166 296.139C57.7918 296.021 57.8794 295.846 57.8794 295.614V295.571C57.8794 295.121 57.7373 294.773 57.4532 294.527C57.1739 294.281 56.7761 294.158 56.26 294.158C55.7155 294.158 55.2823 294.278 54.9603 294.52C54.6384 294.757 54.4253 295.055 54.3211 295.415L51.5228 295.188C51.6649 294.525 51.9442 293.952 52.3609 293.469C52.7776 292.981 53.315 292.607 53.9731 292.347C54.636 292.081 55.403 291.949 56.2742 291.949C56.8803 291.949 57.4603 292.02 58.0143 292.162C58.573 292.304 59.0678 292.524 59.4987 292.822C59.9343 293.121 60.2776 293.504 60.5285 293.973C60.7795 294.437 60.9049 294.993 60.9049 295.642V303H58.0356V301.487H57.9504C57.7752 301.828 57.5408 302.129 57.2473 302.389C56.9537 302.645 56.6009 302.846 56.189 302.993C55.7771 303.135 55.3012 303.206 54.7615 303.206ZM55.6279 301.118C56.073 301.118 56.466 301.03 56.8069 300.855C57.1478 300.675 57.4153 300.434 57.6095 300.131C57.8036 299.828 57.9007 299.484 57.9007 299.101V297.943C57.806 298.005 57.6758 298.062 57.51 298.114C57.3491 298.161 57.1668 298.206 56.9632 298.249C56.7596 298.286 56.556 298.322 56.3524 298.355C56.1488 298.384 55.9641 298.41 55.7984 298.433C55.4433 298.485 55.1331 298.568 54.868 298.682C54.6028 298.795 54.3969 298.949 54.2501 299.143C54.1033 299.333 54.0299 299.57 54.0299 299.854C54.0299 300.266 54.1791 300.58 54.4774 300.798C54.7804 301.011 55.1639 301.118 55.6279 301.118ZM68.6148 292.091V294.364H62.0452V292.091H68.6148ZM63.5367 289.477H66.5622V299.648C66.5622 299.927 66.6048 300.145 66.6901 300.301C66.7753 300.453 66.8937 300.559 67.0452 300.621C67.2014 300.682 67.3814 300.713 67.585 300.713C67.727 300.713 67.869 300.701 68.0111 300.678C68.1531 300.649 68.262 300.628 68.3378 300.614L68.8136 302.865C68.6621 302.912 68.4491 302.967 68.1744 303.028C67.8998 303.095 67.566 303.135 67.173 303.149C66.4439 303.178 65.8047 303.08 65.2554 302.858C64.7109 302.635 64.2871 302.29 63.9841 301.821C63.6811 301.352 63.5319 300.76 63.5367 300.045V289.477ZM75.0001 303.213C73.8779 303.213 72.912 302.986 72.1023 302.531C71.2974 302.072 70.6772 301.423 70.2415 300.585C69.8059 299.742 69.5881 298.746 69.5881 297.595C69.5881 296.473 69.8059 295.488 70.2415 294.641C70.6772 293.793 71.2903 293.133 72.081 292.659C72.8765 292.186 73.8093 291.949 74.8793 291.949C75.599 291.949 76.269 292.065 76.8893 292.297C77.5143 292.524 78.0588 292.867 78.5228 293.327C78.9915 293.786 79.3561 294.364 79.6165 295.06C79.877 295.751 80.0072 296.561 80.0072 297.489V298.32H70.7955V296.445H77.1592C77.1592 296.009 77.0645 295.623 76.8751 295.287C76.6857 294.951 76.4229 294.688 76.0867 294.499C75.7553 294.304 75.3694 294.207 74.929 294.207C74.4698 294.207 74.0626 294.314 73.7075 294.527C73.3571 294.735 73.0825 295.017 72.8836 295.372C72.6847 295.723 72.5829 296.113 72.5782 296.544V298.327C72.5782 298.866 72.6776 299.333 72.8765 299.726C73.0801 300.119 73.3665 300.422 73.7359 300.635C74.1052 300.848 74.5432 300.955 75.0498 300.955C75.386 300.955 75.6937 300.907 75.9731 300.812C76.2524 300.718 76.4915 300.576 76.6904 300.386C76.8893 300.197 77.0408 299.965 77.145 299.69L79.9433 299.875C79.8012 300.547 79.51 301.134 79.0697 301.636C78.6341 302.134 78.0706 302.522 77.3793 302.801C76.6928 303.076 75.8997 303.213 75.0001 303.213ZM89.7504 303.178C88.9218 303.178 88.1713 302.964 87.499 302.538C86.8314 302.107 86.3011 301.475 85.9081 300.642C85.5198 299.804 85.3257 298.777 85.3257 297.56C85.3257 296.31 85.5269 295.27 85.9294 294.442C86.3318 293.608 86.8669 292.986 87.5345 292.574C88.2068 292.157 88.9431 291.949 89.7433 291.949C90.3541 291.949 90.8631 292.053 91.2703 292.261C91.6822 292.465 92.0137 292.721 92.2646 293.028C92.5203 293.331 92.7144 293.63 92.847 293.923H92.9393V288.455H95.9578V303H92.9748V301.253H92.847C92.7049 301.556 92.5037 301.857 92.2433 302.155C91.9876 302.448 91.6538 302.692 91.2419 302.886C90.8347 303.08 90.3375 303.178 89.7504 303.178ZM90.7092 300.77C91.1969 300.77 91.6088 300.637 91.945 300.372C92.2859 300.102 92.5463 299.726 92.7262 299.243C92.9109 298.76 93.0032 298.194 93.0032 297.545C93.0032 296.897 92.9133 296.333 92.7333 295.855C92.5534 295.377 92.293 295.008 91.9521 294.747C91.6112 294.487 91.1969 294.357 90.7092 294.357C90.212 294.357 89.793 294.491 89.4521 294.761C89.1112 295.031 88.8531 295.405 88.678 295.884C88.5028 296.362 88.4152 296.916 88.4152 297.545C88.4152 298.18 88.5028 298.741 88.678 299.229C88.8579 299.712 89.1159 300.09 89.4521 300.365C89.793 300.635 90.212 300.77 90.7092 300.77ZM102.977 303.213C101.855 303.213 100.889 302.986 100.079 302.531C99.2743 302.072 98.654 301.423 98.2184 300.585C97.7828 299.742 97.565 298.746 97.565 297.595C97.565 296.473 97.7828 295.488 98.2184 294.641C98.654 293.793 99.2672 293.133 100.058 292.659C100.853 292.186 101.786 291.949 102.856 291.949C103.576 291.949 104.246 292.065 104.866 292.297C105.491 292.524 106.036 292.867 106.5 293.327C106.968 293.786 107.333 294.364 107.593 295.06C107.854 295.751 107.984 296.561 107.984 297.489V298.32H98.7724V296.445H105.136C105.136 296.009 105.041 295.623 104.852 295.287C104.663 294.951 104.4 294.688 104.064 294.499C103.732 294.304 103.346 294.207 102.906 294.207C102.447 294.207 102.039 294.314 101.684 294.527C101.334 294.735 101.059 295.017 100.86 295.372C100.662 295.723 100.56 296.113 100.555 296.544V298.327C100.555 298.866 100.655 299.333 100.853 299.726C101.057 300.119 101.343 300.422 101.713 300.635C102.082 300.848 102.52 300.955 103.027 300.955C103.363 300.955 103.671 300.907 103.95 300.812C104.229 300.718 104.468 300.576 104.667 300.386C104.866 300.197 105.018 299.965 105.122 299.69L107.92 299.875C107.778 300.547 107.487 301.134 107.047 301.636C106.611 302.134 106.047 302.522 105.356 302.801C104.67 303.076 103.877 303.213 102.977 303.213ZM116.733 296.693V303H113.707V292.091H116.591V294.016H116.719C116.96 293.381 117.365 292.879 117.933 292.51C118.501 292.136 119.19 291.949 120 291.949C120.758 291.949 121.418 292.115 121.982 292.446C122.545 292.777 122.983 293.251 123.295 293.866C123.608 294.477 123.764 295.206 123.764 296.054V303H120.739V296.594C120.743 295.926 120.573 295.405 120.227 295.031C119.882 294.652 119.406 294.463 118.8 294.463C118.393 294.463 118.033 294.551 117.72 294.726C117.412 294.901 117.171 295.157 116.996 295.493C116.825 295.824 116.738 296.224 116.733 296.693ZM128.82 303.206C128.124 303.206 127.503 303.085 126.959 302.844C126.414 302.598 125.983 302.235 125.666 301.757C125.354 301.274 125.197 300.673 125.197 299.953C125.197 299.347 125.309 298.838 125.531 298.426C125.754 298.014 126.057 297.683 126.44 297.432C126.824 297.181 127.259 296.991 127.747 296.864C128.24 296.736 128.756 296.646 129.295 296.594C129.93 296.527 130.441 296.466 130.83 296.409C131.218 296.348 131.5 296.258 131.675 296.139C131.85 296.021 131.937 295.846 131.937 295.614V295.571C131.937 295.121 131.795 294.773 131.511 294.527C131.232 294.281 130.834 294.158 130.318 294.158C129.774 294.158 129.34 294.278 129.018 294.52C128.696 294.757 128.483 295.055 128.379 295.415L125.581 295.188C125.723 294.525 126.002 293.952 126.419 293.469C126.836 292.981 127.373 292.607 128.031 292.347C128.694 292.081 129.461 291.949 130.332 291.949C130.938 291.949 131.518 292.02 132.072 292.162C132.631 292.304 133.126 292.524 133.557 292.822C133.992 293.121 134.336 293.504 134.587 293.973C134.838 294.437 134.963 294.993 134.963 295.642V303H132.094V301.487H132.009C131.833 301.828 131.599 302.129 131.305 302.389C131.012 302.645 130.659 302.846 130.247 302.993C129.835 303.135 129.359 303.206 128.82 303.206ZM129.686 301.118C130.131 301.118 130.524 301.03 130.865 300.855C131.206 300.675 131.473 300.434 131.668 300.131C131.862 299.828 131.959 299.484 131.959 299.101V297.943C131.864 298.005 131.734 298.062 131.568 298.114C131.407 298.161 131.225 298.206 131.021 298.249C130.818 298.286 130.614 298.322 130.41 298.355C130.207 298.384 130.022 298.41 129.857 298.433C129.501 298.485 129.191 298.568 128.926 298.682C128.661 298.795 128.455 298.949 128.308 299.143C128.161 299.333 128.088 299.57 128.088 299.854C128.088 300.266 128.237 300.58 128.535 300.798C128.839 301.011 129.222 301.118 129.686 301.118ZM136.87 303V292.091H139.896V303H136.87ZM138.39 290.685C137.94 290.685 137.555 290.536 137.233 290.237C136.915 289.934 136.757 289.572 136.757 289.151C136.757 288.734 136.915 288.376 137.233 288.078C137.555 287.775 137.94 287.624 138.39 287.624C138.84 287.624 139.224 287.775 139.541 288.078C139.863 288.376 140.024 288.734 140.024 289.151C140.024 289.572 139.863 289.934 139.541 290.237C139.224 290.536 138.84 290.685 138.39 290.685ZM150.956 295.202L148.186 295.372C148.139 295.135 148.037 294.922 147.881 294.733C147.725 294.539 147.519 294.385 147.263 294.271C147.012 294.153 146.711 294.094 146.361 294.094C145.892 294.094 145.497 294.193 145.175 294.392C144.853 294.586 144.692 294.847 144.692 295.173C144.692 295.434 144.796 295.654 145.005 295.834C145.213 296.014 145.57 296.158 146.077 296.267L148.051 296.665C149.112 296.883 149.903 297.233 150.424 297.716C150.944 298.199 151.205 298.833 151.205 299.619C151.205 300.334 150.994 300.962 150.573 301.501C150.156 302.041 149.583 302.463 148.854 302.766C148.13 303.064 147.294 303.213 146.347 303.213C144.903 303.213 143.752 302.912 142.895 302.311C142.043 301.705 141.543 300.881 141.397 299.839L144.372 299.683C144.462 300.124 144.68 300.46 145.026 300.692C145.372 300.919 145.814 301.033 146.354 301.033C146.884 301.033 147.31 300.931 147.632 300.727C147.959 300.519 148.125 300.251 148.13 299.925C148.125 299.65 148.009 299.425 147.782 299.25C147.554 299.07 147.204 298.933 146.73 298.838L144.841 298.462C143.776 298.249 142.983 297.879 142.462 297.354C141.946 296.828 141.688 296.158 141.688 295.344C141.688 294.643 141.877 294.039 142.256 293.533C142.64 293.026 143.177 292.635 143.868 292.361C144.564 292.086 145.379 291.949 146.311 291.949C147.689 291.949 148.774 292.24 149.564 292.822C150.36 293.405 150.824 294.198 150.956 295.202ZM161.747 295.202L158.977 295.372C158.93 295.135 158.828 294.922 158.671 294.733C158.515 294.539 158.309 294.385 158.054 294.271C157.803 294.153 157.502 294.094 157.152 294.094C156.683 294.094 156.287 294.193 155.965 294.392C155.644 294.586 155.483 294.847 155.483 295.173C155.483 295.434 155.587 295.654 155.795 295.834C156.003 296.014 156.361 296.158 156.867 296.267L158.842 296.665C159.903 296.883 160.693 297.233 161.214 297.716C161.735 298.199 161.995 298.833 161.995 299.619C161.995 300.334 161.785 300.962 161.363 301.501C160.947 302.041 160.374 302.463 159.644 302.766C158.92 303.064 158.084 303.213 157.137 303.213C155.693 303.213 154.543 302.912 153.686 302.311C152.833 301.705 152.334 300.881 152.187 299.839L155.163 299.683C155.253 300.124 155.471 300.46 155.816 300.692C156.162 300.919 156.605 301.033 157.144 301.033C157.675 301.033 158.101 300.931 158.423 300.727C158.75 300.519 158.915 300.251 158.92 299.925C158.915 299.65 158.799 299.425 158.572 299.25C158.345 299.07 157.994 298.933 157.521 298.838L155.632 298.462C154.566 298.249 153.773 297.879 153.252 297.354C152.736 296.828 152.478 296.158 152.478 295.344C152.478 294.643 152.668 294.039 153.046 293.533C153.43 293.026 153.967 292.635 154.659 292.361C155.355 292.086 156.169 291.949 157.102 291.949C158.48 291.949 159.564 292.24 160.355 292.822C161.15 293.405 161.614 294.198 161.747 295.202ZM166.571 303.206C165.875 303.206 165.255 303.085 164.711 302.844C164.166 302.598 163.735 302.235 163.418 301.757C163.105 301.274 162.949 300.673 162.949 299.953C162.949 299.347 163.06 298.838 163.283 298.426C163.505 298.014 163.809 297.683 164.192 297.432C164.576 297.181 165.011 296.991 165.499 296.864C165.991 296.736 166.507 296.646 167.047 296.594C167.682 296.527 168.193 296.466 168.581 296.409C168.97 296.348 169.251 296.258 169.426 296.139C169.602 296.021 169.689 295.846 169.689 295.614V295.571C169.689 295.121 169.547 294.773 169.263 294.527C168.984 294.281 168.586 294.158 168.07 294.158C167.525 294.158 167.092 294.278 166.77 294.52C166.448 294.757 166.235 295.055 166.131 295.415L163.333 295.188C163.475 294.525 163.754 293.952 164.171 293.469C164.587 292.981 165.125 292.607 165.783 292.347C166.446 292.081 167.213 291.949 168.084 291.949C168.69 291.949 169.27 292.02 169.824 292.162C170.383 292.304 170.878 292.524 171.309 292.822C171.744 293.121 172.087 293.504 172.338 293.973C172.589 294.437 172.715 294.993 172.715 295.642V303H169.845V301.487H169.76C169.585 301.828 169.351 302.129 169.057 302.389C168.764 302.645 168.411 302.846 167.999 302.993C167.587 303.135 167.111 303.206 166.571 303.206ZM167.438 301.118C167.883 301.118 168.276 301.03 168.617 300.855C168.958 300.675 169.225 300.434 169.419 300.131C169.613 299.828 169.711 299.484 169.711 299.101V297.943C169.616 298.005 169.486 298.062 169.32 298.114C169.159 298.161 168.977 298.206 168.773 298.249C168.569 298.286 168.366 298.322 168.162 298.355C167.959 298.384 167.774 298.41 167.608 298.433C167.253 298.485 166.943 298.568 166.678 298.682C166.413 298.795 166.207 298.949 166.06 299.143C165.913 299.333 165.84 299.57 165.84 299.854C165.84 300.266 165.989 300.58 166.287 300.798C166.59 301.011 166.974 301.118 167.438 301.118ZM177.648 296.693V303H174.622V292.091H177.506V294.016H177.633C177.875 293.381 178.28 292.879 178.848 292.51C179.416 292.136 180.105 291.949 180.915 291.949C181.672 291.949 182.333 292.115 182.896 292.446C183.46 292.777 183.898 293.251 184.21 293.866C184.523 294.477 184.679 295.206 184.679 296.054V303H181.653V296.594C181.658 295.926 181.488 295.405 181.142 295.031C180.796 294.652 180.32 294.463 179.714 294.463C179.307 294.463 178.947 294.551 178.635 294.726C178.327 294.901 178.086 295.157 177.91 295.493C177.74 295.824 177.652 296.224 177.648 296.693ZM191.552 303.213C190.435 303.213 189.474 302.976 188.669 302.503C187.869 302.025 187.253 301.362 186.822 300.514C186.396 299.667 186.183 298.691 186.183 297.588C186.183 296.471 186.399 295.491 186.829 294.648C187.265 293.8 187.883 293.14 188.683 292.666C189.483 292.188 190.435 291.949 191.538 291.949C192.49 291.949 193.323 292.122 194.038 292.467C194.753 292.813 195.319 293.298 195.736 293.923C196.152 294.548 196.382 295.282 196.425 296.125H193.569C193.489 295.58 193.276 295.143 192.93 294.811C192.589 294.475 192.142 294.307 191.588 294.307C191.119 294.307 190.71 294.435 190.359 294.69C190.014 294.941 189.744 295.308 189.55 295.791C189.355 296.274 189.258 296.859 189.258 297.545C189.258 298.241 189.353 298.833 189.542 299.321C189.737 299.809 190.009 300.18 190.359 300.436C190.71 300.692 191.119 300.82 191.588 300.82C191.934 300.82 192.244 300.749 192.518 300.607C192.798 300.464 193.027 300.259 193.207 299.989C193.392 299.714 193.513 299.385 193.569 299.001H196.425C196.377 299.835 196.15 300.569 195.743 301.203C195.34 301.833 194.784 302.325 194.074 302.68C193.364 303.036 192.523 303.213 191.552 303.213ZM202.893 303.213C201.771 303.213 200.805 302.986 199.996 302.531C199.191 302.072 198.57 301.423 198.135 300.585C197.699 299.742 197.481 298.746 197.481 297.595C197.481 296.473 197.699 295.488 198.135 294.641C198.57 293.793 199.184 293.133 199.974 292.659C200.77 292.186 201.703 291.949 202.773 291.949C203.492 291.949 204.162 292.065 204.783 292.297C205.408 292.524 205.952 292.867 206.416 293.327C206.885 293.786 207.249 294.364 207.51 295.06C207.77 295.751 207.9 296.561 207.9 297.489V298.32H198.689V296.445H205.052C205.052 296.009 204.958 295.623 204.768 295.287C204.579 294.951 204.316 294.688 203.98 294.499C203.649 294.304 203.263 294.207 202.822 294.207C202.363 294.207 201.956 294.314 201.601 294.527C201.25 294.735 200.976 295.017 200.777 295.372C200.578 295.723 200.476 296.113 200.471 296.544V298.327C200.471 298.866 200.571 299.333 200.77 299.726C200.973 300.119 201.26 300.422 201.629 300.635C201.998 300.848 202.436 300.955 202.943 300.955C203.279 300.955 203.587 300.907 203.866 300.812C204.146 300.718 204.385 300.576 204.584 300.386C204.783 300.197 204.934 299.965 205.038 299.69L207.837 299.875C207.695 300.547 207.403 301.134 206.963 301.636C206.527 302.134 205.964 302.522 205.273 302.801C204.586 303.076 203.793 303.213 202.893 303.213Z" fill="black"/>
<path d="M40.6501 398V383.455H50.4512V385.99H43.7253V389.456H49.9469V391.991H43.7253V395.464H50.4796V398H40.6501ZM52.3993 398V387.091H55.2829V389.016H55.4107C55.638 388.376 56.0168 387.872 56.5471 387.503C57.0774 387.134 57.7118 386.949 58.4505 386.949C59.1986 386.949 59.8354 387.136 60.361 387.51C60.8866 387.879 61.2369 388.381 61.4121 389.016H61.5258C61.7483 388.391 62.1508 387.891 62.7331 387.517C63.3203 387.138 64.0139 386.949 64.8141 386.949C65.8321 386.949 66.6583 387.273 67.2928 387.922C67.932 388.566 68.2516 389.48 68.2516 390.663V398H65.2331V391.26C65.2331 390.654 65.0722 390.199 64.7502 389.896C64.4282 389.593 64.0258 389.442 63.5428 389.442C62.9936 389.442 62.5651 389.617 62.2573 389.967C61.9495 390.313 61.7956 390.77 61.7956 391.338V398H58.8624V391.196C58.8624 390.661 58.7085 390.235 58.4008 389.918C58.0977 389.6 57.6976 389.442 57.2005 389.442C56.8643 389.442 56.5613 389.527 56.2914 389.697C56.0262 389.863 55.8155 390.098 55.6593 390.401C55.503 390.699 55.4249 391.049 55.4249 391.452V398H52.3993ZM73.3123 398.206C72.6163 398.206 71.996 398.085 71.4515 397.844C70.907 397.598 70.4761 397.235 70.1589 396.757C69.8464 396.274 69.6902 395.673 69.6902 394.953C69.6902 394.347 69.8014 393.838 70.024 393.426C70.2465 393.014 70.5495 392.683 70.9331 392.432C71.3166 392.181 71.7522 391.991 72.2399 391.864C72.7323 391.736 73.2484 391.646 73.7882 391.594C74.4226 391.527 74.934 391.466 75.3223 391.409C75.7105 391.348 75.9922 391.258 76.1674 391.139C76.3426 391.021 76.4302 390.846 76.4302 390.614V390.571C76.4302 390.121 76.2882 389.773 76.0041 389.527C75.7247 389.281 75.327 389.158 74.8109 389.158C74.2664 389.158 73.8332 389.278 73.5112 389.52C73.1892 389.757 72.9761 390.055 72.872 390.415L70.0737 390.188C70.2157 389.525 70.4951 388.952 70.9118 388.469C71.3284 387.981 71.8658 387.607 72.524 387.347C73.1868 387.081 73.9539 386.949 74.8251 386.949C75.4312 386.949 76.0112 387.02 76.5652 387.162C77.1239 387.304 77.6187 387.524 78.0495 387.822C78.4851 388.121 78.8284 388.504 79.0794 388.973C79.3303 389.437 79.4558 389.993 79.4558 390.642V398H76.5865V396.487H76.5012C76.3261 396.828 76.0917 397.129 75.7981 397.389C75.5046 397.645 75.1518 397.846 74.7399 397.993C74.3279 398.135 73.8521 398.206 73.3123 398.206ZM74.1788 396.118C74.6239 396.118 75.0169 396.03 75.3578 395.855C75.6987 395.675 75.9662 395.434 76.1603 395.131C76.3545 394.828 76.4515 394.484 76.4515 394.101V392.943C76.3568 393.005 76.2266 393.062 76.0609 393.114C75.8999 393.161 75.7176 393.206 75.514 393.249C75.3104 393.286 75.1068 393.322 74.9032 393.355C74.6996 393.384 74.515 393.41 74.3493 393.433C73.9941 393.485 73.684 393.568 73.4189 393.682C73.1537 393.795 72.9477 393.949 72.801 394.143C72.6542 394.333 72.5808 394.57 72.5808 394.854C72.5808 395.266 72.7299 395.58 73.0282 395.798C73.3313 396.011 73.7148 396.118 74.1788 396.118ZM81.3631 398V387.091H84.3887V398H81.3631ZM82.883 385.685C82.4332 385.685 82.0473 385.536 81.7253 385.237C81.4081 384.934 81.2495 384.572 81.2495 384.151C81.2495 383.734 81.4081 383.376 81.7253 383.078C82.0473 382.775 82.4332 382.624 82.883 382.624C83.3328 382.624 83.7163 382.775 84.0335 383.078C84.3555 383.376 84.5165 383.734 84.5165 384.151C84.5165 384.572 84.3555 384.934 84.0335 385.237C83.7163 385.536 83.3328 385.685 82.883 385.685ZM89.3979 383.455V398H86.3723V383.455H89.3979Z" fill="black"/>
<path d="M53.5089 500.547H50.3982C50.3413 500.144 50.2253 499.787 50.0501 499.474C49.875 499.157 49.65 498.887 49.3754 498.665C49.1008 498.442 48.7836 498.272 48.4237 498.153C48.0686 498.035 47.6827 497.976 47.2661 497.976C46.5132 497.976 45.8574 498.163 45.2987 498.537C44.74 498.906 44.3068 499.446 43.999 500.156C43.6912 500.862 43.5374 501.719 43.5374 502.727C43.5374 503.764 43.6912 504.635 43.999 505.341C44.3115 506.046 44.7471 506.579 45.3058 506.939C45.8645 507.299 46.5108 507.479 47.2447 507.479C47.6567 507.479 48.0378 507.424 48.3882 507.315C48.7433 507.206 49.0582 507.048 49.3328 506.839C49.6074 506.626 49.8347 506.368 50.0146 506.065C50.1993 505.762 50.3271 505.417 50.3982 505.028L53.5089 505.043C53.4285 505.71 53.2272 506.354 52.9053 506.974C52.588 507.59 52.1595 508.142 51.6197 508.629C51.0847 509.112 50.4455 509.496 49.7021 509.78C48.9635 510.059 48.1278 510.199 47.195 510.199C45.8977 510.199 44.7376 509.905 43.7149 509.318C42.6969 508.731 41.892 507.881 41.3001 506.768C40.713 505.656 40.4195 504.309 40.4195 502.727C40.4195 501.141 40.7178 499.792 41.3143 498.679C41.9109 497.566 42.7206 496.719 43.7433 496.136C44.7661 495.549 45.9166 495.256 47.195 495.256C48.0378 495.256 48.8191 495.374 49.5388 495.611C50.2632 495.848 50.9048 496.193 51.4635 496.648C52.0222 497.098 52.4768 497.649 52.8271 498.303C53.1822 498.956 53.4095 499.704 53.5089 500.547ZM60.1464 510.213C59.0431 510.213 58.0891 509.979 57.2841 509.51C56.484 509.036 55.8661 508.378 55.4305 507.536C54.9948 506.688 54.777 505.705 54.777 504.588C54.777 503.461 54.9948 502.476 55.4305 501.634C55.8661 500.786 56.484 500.128 57.2841 499.659C58.0891 499.186 59.0431 498.949 60.1464 498.949C61.2496 498.949 62.2013 499.186 63.0015 499.659C63.8064 500.128 64.4267 500.786 64.8623 501.634C65.2979 502.476 65.5157 503.461 65.5157 504.588C65.5157 505.705 65.2979 506.688 64.8623 507.536C64.4267 508.378 63.8064 509.036 63.0015 509.51C62.2013 509.979 61.2496 510.213 60.1464 510.213ZM60.1606 507.869C60.6625 507.869 61.0815 507.727 61.4177 507.443C61.7538 507.154 62.0072 506.761 62.1776 506.264C62.3528 505.767 62.4404 505.201 62.4404 504.567C62.4404 503.932 62.3528 503.366 62.1776 502.869C62.0072 502.372 61.7538 501.979 61.4177 501.69C61.0815 501.402 60.6625 501.257 60.1606 501.257C59.6539 501.257 59.2278 501.402 58.8822 501.69C58.5413 501.979 58.2832 502.372 58.108 502.869C57.9376 503.366 57.8523 503.932 57.8523 504.567C57.8523 505.201 57.9376 505.767 58.108 506.264C58.2832 506.761 58.5413 507.154 58.8822 507.443C59.2278 507.727 59.6539 507.869 60.1606 507.869ZM71.0629 510.178C70.2343 510.178 69.4838 509.964 68.8115 509.538C68.1439 509.107 67.6136 508.475 67.2206 507.642C66.8323 506.804 66.6382 505.777 66.6382 504.56C66.6382 503.31 66.8394 502.27 67.2419 501.442C67.6443 500.608 68.1794 499.986 68.847 499.574C69.5193 499.157 70.2556 498.949 71.0558 498.949C71.6666 498.949 72.1756 499.053 72.5828 499.261C72.9947 499.465 73.3262 499.721 73.5771 500.028C73.8328 500.331 74.0269 500.63 74.1595 500.923H74.2518V495.455H77.2703V510H74.2873V508.253H74.1595C74.0174 508.556 73.8162 508.857 73.5558 509.155C73.3001 509.448 72.9663 509.692 72.5544 509.886C72.1472 510.08 71.65 510.178 71.0629 510.178ZM72.0217 507.77C72.5094 507.77 72.9213 507.637 73.2575 507.372C73.5984 507.102 73.8588 506.726 74.0388 506.243C74.2234 505.76 74.3157 505.194 74.3157 504.545C74.3157 503.897 74.2258 503.333 74.0459 502.855C73.8659 502.377 73.6055 502.008 73.2646 501.747C72.9237 501.487 72.5094 501.357 72.0217 501.357C71.5245 501.357 71.1055 501.491 70.7646 501.761C70.4237 502.031 70.1656 502.405 69.9905 502.884C69.8153 503.362 69.7277 503.916 69.7277 504.545C69.7277 505.18 69.8153 505.741 69.9905 506.229C70.1704 506.712 70.4284 507.09 70.7646 507.365C71.1055 507.635 71.5245 507.77 72.0217 507.77ZM84.2894 510.213C83.1673 510.213 82.2014 509.986 81.3917 509.531C80.5868 509.072 79.9665 508.423 79.5309 507.585C79.0953 506.742 78.8775 505.746 78.8775 504.595C78.8775 503.473 79.0953 502.488 79.5309 501.641C79.9665 500.793 80.5797 500.133 81.3704 499.659C82.1659 499.186 83.0986 498.949 84.1687 498.949C84.8884 498.949 85.5584 499.065 86.1787 499.297C86.8037 499.524 87.3482 499.867 87.8122 500.327C88.2809 500.786 88.6455 501.364 88.9059 502.06C89.1663 502.751 89.2965 503.561 89.2965 504.489V505.32H80.0849V503.445H86.4485C86.4485 503.009 86.3538 502.623 86.1644 502.287C85.9751 501.951 85.7123 501.688 85.3761 501.499C85.0447 501.304 84.6588 501.207 84.2184 501.207C83.7591 501.207 83.3519 501.314 82.9968 501.527C82.6465 501.735 82.3718 502.017 82.173 502.372C81.9741 502.723 81.8723 503.113 81.8676 503.544V505.327C81.8676 505.866 81.967 506.333 82.1659 506.726C82.3695 507.119 82.6559 507.422 83.0252 507.635C83.3946 507.848 83.8325 507.955 84.3392 507.955C84.6753 507.955 84.9831 507.907 85.2625 507.812C85.5418 507.718 85.7809 507.576 85.9798 507.386C86.1787 507.197 86.3302 506.965 86.4343 506.69L89.2326 506.875C89.0906 507.547 88.7994 508.134 88.359 508.636C87.9234 509.134 87.36 509.522 86.6687 509.801C85.9822 510.076 85.1891 510.213 84.2894 510.213ZM95.0199 514.091V499.091H98.0028V500.923H98.1378C98.2704 500.63 98.4621 500.331 98.7131 500.028C98.9688 499.721 99.3002 499.465 99.7074 499.261C100.119 499.053 100.631 498.949 101.241 498.949C102.037 498.949 102.771 499.157 103.443 499.574C104.116 499.986 104.653 500.608 105.055 501.442C105.458 502.27 105.659 503.31 105.659 504.56C105.659 505.777 105.463 506.804 105.07 507.642C104.681 508.475 104.151 509.107 103.479 509.538C102.811 509.964 102.063 510.178 101.234 510.178C100.647 510.178 100.148 510.08 99.7358 509.886C99.3286 509.692 98.9948 509.448 98.7344 509.155C98.474 508.857 98.2751 508.556 98.1378 508.253H98.0455V514.091H95.0199ZM97.9815 504.545C97.9815 505.194 98.0715 505.76 98.2514 506.243C98.4313 506.726 98.6918 507.102 99.0327 507.372C99.3736 507.637 99.7879 507.77 100.276 507.77C100.768 507.77 101.185 507.635 101.526 507.365C101.866 507.09 102.125 506.712 102.3 506.229C102.48 505.741 102.57 505.18 102.57 504.545C102.57 503.916 102.482 503.362 102.307 502.884C102.132 502.405 101.874 502.031 101.533 501.761C101.192 501.491 100.773 501.357 100.276 501.357C99.7831 501.357 99.3665 501.487 99.0256 501.747C98.6894 502.008 98.4313 502.377 98.2514 502.855C98.0715 503.333 97.9815 503.897 97.9815 504.545ZM112.165 510.213C111.062 510.213 110.108 509.979 109.303 509.51C108.503 509.036 107.885 508.378 107.449 507.536C107.014 506.688 106.796 505.705 106.796 504.588C106.796 503.461 107.014 502.476 107.449 501.634C107.885 500.786 108.503 500.128 109.303 499.659C110.108 499.186 111.062 498.949 112.165 498.949C113.268 498.949 114.22 499.186 115.02 499.659C115.825 500.128 116.445 500.786 116.881 501.634C117.317 502.476 117.534 503.461 117.534 504.588C117.534 505.705 117.317 506.688 116.881 507.536C116.445 508.378 115.825 509.036 115.02 509.51C114.22 509.979 113.268 510.213 112.165 510.213ZM112.179 507.869C112.681 507.869 113.1 507.727 113.436 507.443C113.773 507.154 114.026 506.761 114.196 506.264C114.372 505.767 114.459 505.201 114.459 504.567C114.459 503.932 114.372 503.366 114.196 502.869C114.026 502.372 113.773 501.979 113.436 501.69C113.1 501.402 112.681 501.257 112.179 501.257C111.673 501.257 111.247 501.402 110.901 501.69C110.56 501.979 110.302 502.372 110.127 502.869C109.956 503.366 109.871 503.932 109.871 504.567C109.871 505.201 109.956 505.767 110.127 506.264C110.302 506.761 110.56 507.154 110.901 507.443C111.247 507.727 111.673 507.869 112.179 507.869ZM128.138 502.202L125.369 502.372C125.321 502.135 125.219 501.922 125.063 501.733C124.907 501.539 124.701 501.385 124.445 501.271C124.194 501.153 123.894 501.094 123.543 501.094C123.075 501.094 122.679 501.193 122.357 501.392C122.035 501.586 121.874 501.847 121.874 502.173C121.874 502.434 121.978 502.654 122.187 502.834C122.395 503.014 122.753 503.158 123.259 503.267L125.234 503.665C126.294 503.883 127.085 504.233 127.606 504.716C128.127 505.199 128.387 505.833 128.387 506.619C128.387 507.334 128.176 507.962 127.755 508.501C127.338 509.041 126.765 509.463 126.036 509.766C125.312 510.064 124.476 510.213 123.529 510.213C122.085 510.213 120.934 509.912 120.077 509.311C119.225 508.705 118.726 507.881 118.579 506.839L121.555 506.683C121.645 507.124 121.862 507.46 122.208 507.692C122.554 507.919 122.996 508.033 123.536 508.033C124.066 508.033 124.493 507.931 124.815 507.727C125.141 507.519 125.307 507.251 125.312 506.925C125.307 506.65 125.191 506.425 124.964 506.25C124.736 506.07 124.386 505.933 123.913 505.838L122.023 505.462C120.958 505.249 120.165 504.879 119.644 504.354C119.128 503.828 118.87 503.158 118.87 502.344C118.87 501.643 119.059 501.039 119.438 500.533C119.822 500.026 120.359 499.635 121.05 499.361C121.746 499.086 122.561 498.949 123.494 498.949C124.871 498.949 125.956 499.24 126.746 499.822C127.542 500.405 128.006 501.198 128.138 502.202ZM135.655 499.091V501.364H129.085V499.091H135.655ZM130.577 496.477H133.602V506.648C133.602 506.927 133.645 507.145 133.73 507.301C133.815 507.453 133.934 507.559 134.085 507.621C134.241 507.682 134.421 507.713 134.625 507.713C134.767 507.713 134.909 507.701 135.051 507.678C135.193 507.649 135.302 507.628 135.378 507.614L135.854 509.865C135.702 509.912 135.489 509.967 135.214 510.028C134.94 510.095 134.606 510.135 134.213 510.149C133.484 510.178 132.845 510.08 132.295 509.858C131.751 509.635 131.327 509.29 131.024 508.821C130.721 508.352 130.572 507.76 130.577 507.045V496.477ZM140.296 510.206C139.6 510.206 138.98 510.085 138.436 509.844C137.891 509.598 137.46 509.235 137.143 508.757C136.831 508.274 136.674 507.673 136.674 506.953C136.674 506.347 136.786 505.838 137.008 505.426C137.231 505.014 137.534 504.683 137.917 504.432C138.301 504.181 138.736 503.991 139.224 503.864C139.716 503.736 140.233 503.646 140.772 503.594C141.407 503.527 141.918 503.466 142.306 503.409C142.695 503.348 142.976 503.258 143.152 503.139C143.327 503.021 143.414 502.846 143.414 502.614V502.571C143.414 502.121 143.272 501.773 142.988 501.527C142.709 501.281 142.311 501.158 141.795 501.158C141.251 501.158 140.817 501.278 140.495 501.52C140.173 501.757 139.96 502.055 139.856 502.415L137.058 502.188C137.2 501.525 137.479 500.952 137.896 500.469C138.313 499.981 138.85 499.607 139.508 499.347C140.171 499.081 140.938 498.949 141.809 498.949C142.415 498.949 142.995 499.02 143.549 499.162C144.108 499.304 144.603 499.524 145.034 499.822C145.469 500.121 145.813 500.504 146.064 500.973C146.314 501.437 146.44 501.993 146.44 502.642V510H143.571V508.487H143.485C143.31 508.828 143.076 509.129 142.782 509.389C142.489 509.645 142.136 509.846 141.724 509.993C141.312 510.135 140.836 510.206 140.296 510.206ZM141.163 508.118C141.608 508.118 142.001 508.03 142.342 507.855C142.683 507.675 142.95 507.434 143.144 507.131C143.339 506.828 143.436 506.484 143.436 506.101V504.943C143.341 505.005 143.211 505.062 143.045 505.114C142.884 505.161 142.702 505.206 142.498 505.249C142.295 505.286 142.091 505.322 141.887 505.355C141.684 505.384 141.499 505.41 141.333 505.433C140.978 505.485 140.668 505.568 140.403 505.682C140.138 505.795 139.932 505.949 139.785 506.143C139.638 506.333 139.565 506.57 139.565 506.854C139.565 507.266 139.714 507.58 140.012 507.798C140.315 508.011 140.699 508.118 141.163 508.118ZM151.373 495.455V510H148.347V495.455H151.373Z" fill="black"/>
<path d="M42.9858 607H39.6904L44.7117 592.455H48.6748L53.689 607H50.3935L46.75 595.778H46.6364L42.9858 607ZM42.7799 601.283H50.564V603.683H42.7799V601.283ZM58.4549 607.178C57.6263 607.178 56.8759 606.964 56.2035 606.538C55.5359 606.107 55.0056 605.475 54.6126 604.642C54.2243 603.804 54.0302 602.777 54.0302 601.56C54.0302 600.31 54.2314 599.27 54.6339 598.442C55.0364 597.608 55.5714 596.986 56.239 596.574C56.9114 596.157 57.6476 595.949 58.4478 595.949C59.0586 595.949 59.5676 596.053 59.9748 596.261C60.3867 596.465 60.7182 596.721 60.9691 597.028C61.2248 597.331 61.4189 597.63 61.5515 597.923H61.6439V592.455H64.6623V607H61.6794V605.253H61.5515C61.4095 605.556 61.2082 605.857 60.9478 606.155C60.6921 606.448 60.3583 606.692 59.9464 606.886C59.5392 607.08 59.0421 607.178 58.4549 607.178ZM59.4137 604.77C59.9014 604.77 60.3134 604.637 60.6495 604.372C60.9904 604.102 61.2509 603.726 61.4308 603.243C61.6154 602.76 61.7078 602.194 61.7078 601.545C61.7078 600.897 61.6178 600.333 61.4379 599.855C61.258 599.377 60.9975 599.008 60.6566 598.747C60.3157 598.487 59.9014 598.357 59.4137 598.357C58.9166 598.357 58.4975 598.491 58.1566 598.761C57.8157 599.031 57.5577 599.405 57.3825 599.884C57.2073 600.362 57.1197 600.916 57.1197 601.545C57.1197 602.18 57.2073 602.741 57.3825 603.229C57.5624 603.712 57.8205 604.09 58.1566 604.365C58.4975 604.635 58.9166 604.77 59.4137 604.77ZM66.7099 607V596.091H69.6431V597.994H69.7568C69.9556 597.317 70.2894 596.806 70.7582 596.46C71.2269 596.11 71.7667 595.935 72.3775 595.935C72.529 595.935 72.6924 595.944 72.8676 595.963C73.0427 595.982 73.1966 596.008 73.3292 596.041V598.726C73.1872 598.683 72.9907 598.645 72.7397 598.612C72.4888 598.579 72.2591 598.562 72.0508 598.562C71.6057 598.562 71.208 598.66 70.8576 598.854C70.512 599.043 70.2373 599.308 70.0338 599.649C69.8349 599.99 69.7355 600.383 69.7355 600.828V607H66.7099ZM78.9173 607.213C77.7951 607.213 76.8292 606.986 76.0195 606.531C75.2146 606.072 74.5943 605.423 74.1587 604.585C73.7231 603.742 73.5053 602.746 73.5053 601.595C73.5053 600.473 73.7231 599.488 74.1587 598.641C74.5943 597.793 75.2075 597.133 75.9982 596.659C76.7937 596.186 77.7264 595.949 78.7965 595.949C79.5162 595.949 80.1862 596.065 80.8065 596.297C81.4315 596.524 81.976 596.867 82.44 597.327C82.9087 597.786 83.2733 598.364 83.5337 599.06C83.7942 599.751 83.9244 600.561 83.9244 601.489V602.32H74.7127V600.445H81.0763C81.0763 600.009 80.9817 599.623 80.7923 599.287C80.6029 598.951 80.3401 598.688 80.0039 598.499C79.6725 598.304 79.2866 598.207 78.8462 598.207C78.387 598.207 77.9798 598.314 77.6246 598.527C77.2743 598.735 76.9996 599.017 76.8008 599.372C76.6019 599.723 76.5001 600.113 76.4954 600.544V602.327C76.4954 602.866 76.5948 603.333 76.7937 603.726C76.9973 604.119 77.2837 604.422 77.6531 604.635C78.0224 604.848 78.4603 604.955 78.967 604.955C79.3031 604.955 79.6109 604.907 79.8903 604.812C80.1696 604.718 80.4087 604.576 80.6076 604.386C80.8065 604.197 80.958 603.965 81.0621 603.69L83.8604 603.875C83.7184 604.547 83.4272 605.134 82.9869 605.636C82.5513 606.134 81.9878 606.522 81.2965 606.801C80.61 607.076 79.8169 607.213 78.9173 607.213ZM94.5355 599.202L91.7656 599.372C91.7183 599.135 91.6165 598.922 91.4602 598.733C91.304 598.539 91.098 598.385 90.8423 598.271C90.5914 598.153 90.2907 598.094 89.9403 598.094C89.4716 598.094 89.0762 598.193 88.7542 598.392C88.4323 598.586 88.2713 598.847 88.2713 599.173C88.2713 599.434 88.3755 599.654 88.5838 599.834C88.7921 600.014 89.1496 600.158 89.6562 600.267L91.6307 600.665C92.6913 600.883 93.482 601.233 94.0028 601.716C94.5237 602.199 94.7841 602.833 94.7841 603.619C94.7841 604.334 94.5734 604.962 94.152 605.501C93.7353 606.041 93.1624 606.463 92.4332 606.766C91.7088 607.064 90.8731 607.213 89.9261 607.213C88.482 607.213 87.3314 606.912 86.4744 606.311C85.6221 605.705 85.1226 604.881 84.9758 603.839L87.9517 603.683C88.0417 604.124 88.2595 604.46 88.6051 604.692C88.9507 604.919 89.3935 605.033 89.9332 605.033C90.4635 605.033 90.8897 604.931 91.2116 604.727C91.5383 604.519 91.7041 604.251 91.7088 603.925C91.7041 603.65 91.5881 603.425 91.3608 603.25C91.1335 603.07 90.7831 602.933 90.3096 602.838L88.4204 602.462C87.3551 602.249 86.562 601.879 86.0412 601.354C85.5251 600.828 85.267 600.158 85.267 599.344C85.267 598.643 85.4564 598.039 85.8352 597.533C86.2187 597.026 86.7561 596.635 87.4474 596.361C88.1435 596.086 88.9578 595.949 89.8906 595.949C91.2685 595.949 92.3527 596.24 93.1435 596.822C93.9389 597.405 94.4029 598.198 94.5355 599.202ZM105.326 599.202L102.556 599.372C102.509 599.135 102.407 598.922 102.251 598.733C102.094 598.539 101.888 598.385 101.633 598.271C101.382 598.153 101.081 598.094 100.731 598.094C100.262 598.094 99.8667 598.193 99.5447 598.392C99.2227 598.586 99.0618 598.847 99.0618 599.173C99.0618 599.434 99.1659 599.654 99.3743 599.834C99.5826 600.014 99.9401 600.158 100.447 600.267L102.421 600.665C103.482 600.883 104.272 601.233 104.793 601.716C105.314 602.199 105.575 602.833 105.575 603.619C105.575 604.334 105.364 604.962 104.942 605.501C104.526 606.041 103.953 606.463 103.224 606.766C102.499 607.064 101.664 607.213 100.717 607.213C99.2725 607.213 98.1219 606.912 97.2649 606.311C96.4126 605.705 95.9131 604.881 95.7663 603.839L98.7422 603.683C98.8321 604.124 99.0499 604.46 99.3956 604.692C99.7412 604.919 100.184 605.033 100.724 605.033C101.254 605.033 101.68 604.931 102.002 604.727C102.329 604.519 102.495 604.251 102.499 603.925C102.495 603.65 102.379 603.425 102.151 603.25C101.924 603.07 101.574 602.933 101.1 602.838L99.2109 602.462C98.1456 602.249 97.3525 601.879 96.8316 601.354C96.3155 600.828 96.0575 600.158 96.0575 599.344C96.0575 598.643 96.2469 598.039 96.6257 597.533C97.0092 597.026 97.5466 596.635 98.2379 596.361C98.9339 596.086 99.7483 595.949 100.681 595.949C102.059 595.949 103.143 596.24 103.934 596.822C104.729 597.405 105.193 598.198 105.326 599.202ZM112.011 607.213C110.889 607.213 109.923 606.986 109.114 606.531C108.309 606.072 107.688 605.423 107.253 604.585C106.817 603.742 106.599 602.746 106.599 601.595C106.599 600.473 106.817 599.488 107.253 598.641C107.688 597.793 108.302 597.133 109.092 596.659C109.888 596.186 110.821 595.949 111.891 595.949C112.61 595.949 113.28 596.065 113.901 596.297C114.526 596.524 115.07 596.867 115.534 597.327C116.003 597.786 116.367 598.364 116.628 599.06C116.888 599.751 117.018 600.561 117.018 601.489V602.32H107.807V600.445H114.17C114.17 600.009 114.076 599.623 113.886 599.287C113.697 598.951 113.434 598.688 113.098 598.499C112.767 598.304 112.381 598.207 111.94 598.207C111.481 598.207 111.074 598.314 110.719 598.527C110.368 598.735 110.094 599.017 109.895 599.372C109.696 599.723 109.594 600.113 109.589 600.544V602.327C109.589 602.866 109.689 603.333 109.888 603.726C110.091 604.119 110.378 604.422 110.747 604.635C111.116 604.848 111.554 604.955 112.061 604.955C112.397 604.955 112.705 604.907 112.984 604.812C113.264 604.718 113.503 604.576 113.702 604.386C113.901 604.197 114.052 603.965 114.156 603.69L116.955 603.875C116.812 604.547 116.521 605.134 116.081 605.636C115.645 606.134 115.082 606.522 114.391 606.801C113.704 607.076 112.911 607.213 112.011 607.213Z" fill="black"/>
<path d="M155.323 707.638C155.266 707.065 155.022 706.62 154.591 706.303C154.161 705.985 153.576 705.827 152.837 705.827C152.335 705.827 151.912 705.898 151.566 706.04C151.22 706.177 150.955 706.369 150.77 706.615C150.591 706.861 150.501 707.141 150.501 707.453C150.491 707.714 150.546 707.941 150.664 708.135C150.787 708.329 150.955 708.497 151.168 708.639C151.381 708.777 151.627 708.897 151.907 709.001C152.186 709.101 152.484 709.186 152.802 709.257L154.109 709.57C154.743 709.712 155.325 709.901 155.856 710.138C156.386 710.375 156.845 710.666 157.234 711.011C157.622 711.357 157.922 711.764 158.136 712.233C158.353 712.702 158.465 713.239 158.469 713.845C158.465 714.735 158.237 715.507 157.788 716.161C157.342 716.809 156.699 717.313 155.856 717.673C155.018 718.028 154.007 718.206 152.823 718.206C151.649 718.206 150.626 718.026 149.755 717.666C148.888 717.306 148.211 716.774 147.724 716.068C147.241 715.358 146.987 714.48 146.964 713.433H149.94C149.973 713.921 150.112 714.328 150.359 714.655C150.609 714.977 150.943 715.221 151.36 715.386C151.781 715.547 152.257 715.628 152.788 715.628C153.308 715.628 153.761 715.552 154.144 715.401C154.532 715.249 154.833 715.038 155.046 714.768C155.259 714.499 155.366 714.188 155.366 713.838C155.366 713.511 155.269 713.237 155.074 713.014C154.885 712.792 154.606 712.602 154.236 712.446C153.872 712.29 153.424 712.148 152.894 712.02L151.31 711.622C150.084 711.324 149.116 710.857 148.405 710.223C147.695 709.589 147.342 708.734 147.347 707.659C147.342 706.778 147.577 706.009 148.05 705.351C148.529 704.693 149.184 704.179 150.018 703.81C150.851 703.44 151.798 703.256 152.859 703.256C153.938 703.256 154.88 703.44 155.685 703.81C156.495 704.179 157.125 704.693 157.574 705.351C158.024 706.009 158.256 706.771 158.27 707.638H155.323ZM164.97 718.213C163.867 718.213 162.913 717.979 162.108 717.51C161.308 717.036 160.69 716.378 160.254 715.536C159.819 714.688 159.601 713.705 159.601 712.588C159.601 711.461 159.819 710.476 160.254 709.634C160.69 708.786 161.308 708.128 162.108 707.659C162.913 707.186 163.867 706.949 164.97 706.949C166.073 706.949 167.025 707.186 167.825 707.659C168.63 708.128 169.25 708.786 169.686 709.634C170.122 710.476 170.339 711.461 170.339 712.588C170.339 713.705 170.122 714.688 169.686 715.536C169.25 716.378 168.63 717.036 167.825 717.51C167.025 717.979 166.073 718.213 164.97 718.213ZM164.984 715.869C165.486 715.869 165.905 715.727 166.241 715.443C166.578 715.154 166.831 714.761 167.001 714.264C167.176 713.767 167.264 713.201 167.264 712.567C167.264 711.932 167.176 711.366 167.001 710.869C166.831 710.372 166.578 709.979 166.241 709.69C165.905 709.402 165.486 709.257 164.984 709.257C164.478 709.257 164.051 709.402 163.706 709.69C163.365 709.979 163.107 710.372 162.932 710.869C162.761 711.366 162.676 711.932 162.676 712.567C162.676 713.201 162.761 713.767 162.932 714.264C163.107 714.761 163.365 715.154 163.706 715.443C164.051 715.727 164.478 715.869 164.984 715.869ZM178.862 713.355V707.091H181.888V718H178.983V716.018H178.87C178.623 716.658 178.214 717.171 177.641 717.56C177.073 717.948 176.379 718.142 175.56 718.142C174.831 718.142 174.189 717.976 173.635 717.645C173.081 717.313 172.648 716.842 172.335 716.232C172.028 715.621 171.871 714.889 171.867 714.037V707.091H174.892V713.497C174.897 714.141 175.07 714.65 175.411 715.024C175.752 715.398 176.209 715.585 176.781 715.585C177.146 715.585 177.487 715.502 177.804 715.337C178.121 715.166 178.377 714.915 178.571 714.584C178.77 714.252 178.867 713.843 178.862 713.355ZM183.868 718V707.091H186.752V709.016H186.879C187.107 708.376 187.486 707.872 188.016 707.503C188.546 707.134 189.181 706.949 189.919 706.949C190.667 706.949 191.304 707.136 191.83 707.51C192.355 707.879 192.706 708.381 192.881 709.016H192.995C193.217 708.391 193.62 707.891 194.202 707.517C194.789 707.138 195.483 706.949 196.283 706.949C197.301 706.949 198.127 707.273 198.762 707.922C199.401 708.566 199.72 709.48 199.72 710.663V718H196.702V711.26C196.702 710.654 196.541 710.199 196.219 709.896C195.897 709.593 195.495 709.442 195.012 709.442C194.462 709.442 194.034 709.617 193.726 709.967C193.418 710.313 193.264 710.77 193.264 711.338V718H190.331V711.196C190.331 710.661 190.177 710.235 189.87 709.918C189.566 709.6 189.166 709.442 188.669 709.442C188.333 709.442 188.03 709.527 187.76 709.697C187.495 709.863 187.284 710.098 187.128 710.401C186.972 710.699 186.894 711.049 186.894 711.452V718H183.868ZM206.642 718.213C205.52 718.213 204.554 717.986 203.744 717.531C202.939 717.072 202.319 716.423 201.883 715.585C201.448 714.742 201.23 713.746 201.23 712.595C201.23 711.473 201.448 710.488 201.883 709.641C202.319 708.793 202.932 708.133 203.723 707.659C204.518 707.186 205.451 706.949 206.521 706.949C207.241 706.949 207.911 707.065 208.531 707.297C209.156 707.524 209.701 707.867 210.165 708.327C210.633 708.786 210.998 709.364 211.258 710.06C211.519 710.751 211.649 711.561 211.649 712.489V713.32H202.437V711.445H208.801C208.801 711.009 208.706 710.623 208.517 710.287C208.327 709.951 208.065 709.688 207.729 709.499C207.397 709.304 207.011 709.207 206.571 709.207C206.112 709.207 205.704 709.314 205.349 709.527C204.999 709.735 204.724 710.017 204.525 710.372C204.327 710.723 204.225 711.113 204.22 711.544V713.327C204.22 713.866 204.319 714.333 204.518 714.726C204.722 715.119 205.008 715.422 205.378 715.635C205.747 715.848 206.185 715.955 206.692 715.955C207.028 715.955 207.336 715.907 207.615 715.812C207.894 715.718 208.133 715.576 208.332 715.386C208.531 715.197 208.683 714.965 208.787 714.69L211.585 714.875C211.443 715.547 211.152 716.134 210.711 716.636C210.276 717.134 209.712 717.522 209.021 717.801C208.335 718.076 207.541 718.213 206.642 718.213ZM218.986 707.091V709.364H212.416V707.091H218.986ZM213.908 704.477H216.933V714.648C216.933 714.927 216.976 715.145 217.061 715.301C217.146 715.453 217.265 715.559 217.416 715.621C217.573 715.682 217.753 715.713 217.956 715.713C218.098 715.713 218.24 715.701 218.382 715.678C218.524 715.649 218.633 715.628 218.709 715.614L219.185 717.865C219.033 717.912 218.82 717.967 218.546 718.028C218.271 718.095 217.937 718.135 217.544 718.149C216.815 718.178 216.176 718.08 215.627 717.858C215.082 717.635 214.658 717.29 214.355 716.821C214.052 716.352 213.903 715.76 213.908 715.045V704.477ZM226.319 707.091V709.364H219.75V707.091H226.319ZM221.241 704.477H224.267V714.648C224.267 714.927 224.309 715.145 224.395 715.301C224.48 715.453 224.598 715.559 224.75 715.621C224.906 715.682 225.086 715.713 225.29 715.713C225.432 715.713 225.574 715.701 225.716 715.678C225.858 715.649 225.967 715.628 226.042 715.614L226.518 717.865C226.367 717.912 226.154 717.967 225.879 718.028C225.604 718.095 225.271 718.135 224.878 718.149C224.148 718.178 223.509 718.08 222.96 717.858C222.416 717.635 221.992 717.29 221.689 716.821C221.386 716.352 221.237 715.76 221.241 715.045V704.477ZM227.85 718V707.091H230.784V708.994H230.897C231.096 708.317 231.43 707.806 231.899 707.46C232.367 707.11 232.907 706.935 233.518 706.935C233.669 706.935 233.833 706.944 234.008 706.963C234.183 706.982 234.337 707.008 234.47 707.041V709.726C234.328 709.683 234.131 709.645 233.88 709.612C233.629 709.579 233.4 709.562 233.191 709.562C232.746 709.562 232.348 709.66 231.998 709.854C231.652 710.043 231.378 710.308 231.174 710.649C230.975 710.99 230.876 711.383 230.876 711.828V718H227.85ZM240.058 718.213C238.935 718.213 237.97 717.986 237.16 717.531C236.355 717.072 235.735 716.423 235.299 715.585C234.864 714.742 234.646 713.746 234.646 712.595C234.646 711.473 234.864 710.488 235.299 709.641C235.735 708.793 236.348 708.133 237.139 707.659C237.934 707.186 238.867 706.949 239.937 706.949C240.657 706.949 241.327 707.065 241.947 707.297C242.572 707.524 243.116 707.867 243.58 708.327C244.049 708.786 244.414 709.364 244.674 710.06C244.935 710.751 245.065 711.561 245.065 712.489V713.32H235.853V711.445H242.217C242.217 711.009 242.122 710.623 241.933 710.287C241.743 709.951 241.48 709.688 241.144 709.499C240.813 709.304 240.427 709.207 239.987 709.207C239.527 709.207 239.12 709.314 238.765 709.527C238.415 709.735 238.14 710.017 237.941 710.372C237.742 710.723 237.641 711.113 237.636 711.544V713.327C237.636 713.866 237.735 714.333 237.934 714.726C238.138 715.119 238.424 715.422 238.793 715.635C239.163 715.848 239.601 715.955 240.107 715.955C240.444 715.955 240.751 715.907 241.031 715.812C241.31 715.718 241.549 715.576 241.748 715.386C241.947 715.197 242.098 714.965 242.203 714.69L245.001 714.875C244.859 715.547 244.568 716.134 244.127 716.636C243.692 717.134 243.128 717.522 242.437 717.801C241.75 718.076 240.957 718.213 240.058 718.213Z" fill="black"/>
</g>
<defs>
<clipPath id="clip0_61_3421">
<rect width="390" height="844" fill="white"/>
</clipPath>
</defs>
</svg>
