<svg width="86" height="68" viewBox="0 0 86 68" fill="none" xmlns="http://www.w3.org/2000/svg">
<path fill-rule="evenodd" clip-rule="evenodd" d="M8.6 0C6.31914 0 4.13169 0.895533 2.51888 2.48959C0.906068 4.08365 0 6.24566 0 8.5V59.5C0 61.7543 0.906068 63.9163 2.51888 65.5104C4.13169 67.1045 6.31914 68 8.6 68H77.4C79.6809 68 81.8683 67.1045 83.4811 65.5104C85.0939 63.9163 86 61.7543 86 59.5V8.5C86 6.24566 85.0939 4.08365 83.4811 2.48959C81.8683 0.895533 79.6809 0 77.4 0H8.6ZM51.6 21.25C51.6 20.1228 52.053 19.0418 52.8594 18.2448C53.6659 17.4478 54.7596 17 55.9 17H68.8C69.9404 17 71.0342 17.4478 71.8406 18.2448C72.647 19.0418 73.1 20.1228 73.1 21.25C73.1 22.3772 72.647 23.4582 71.8406 24.2552C71.0342 25.0522 69.9404 25.5 68.8 25.5H55.9C54.7596 25.5 53.6659 25.0522 52.8594 24.2552C52.053 23.4582 51.6 22.3772 51.6 21.25ZM51.6 34C51.6 32.8728 52.053 31.7918 52.8594 30.9948C53.6659 30.1978 54.7596 29.75 55.9 29.75H68.8C69.9404 29.75 71.0342 30.1978 71.8406 30.9948C72.647 31.7918 73.1 32.8728 73.1 34C73.1 35.1272 72.647 36.2082 71.8406 37.0052C71.0342 37.8022 69.9404 38.25 68.8 38.25H55.9C54.7596 38.25 53.6659 37.8022 52.8594 37.0052C52.053 36.2082 51.6 35.1272 51.6 34ZM51.6 46.75C51.6 45.6228 52.053 44.5418 52.8594 43.7448C53.6659 42.9478 54.7596 42.5 55.9 42.5H68.8C69.9404 42.5 71.0342 42.9478 71.8406 43.7448C72.647 44.5418 73.1 45.6228 73.1 46.75C73.1 47.8772 72.647 48.9582 71.8406 49.7552C71.0342 50.5522 69.9404 51 68.8 51H55.9C54.7596 51 53.6659 50.5522 52.8594 49.7552C52.053 48.9582 51.6 47.8772 51.6 46.75ZM17.2 25.5C17.2 22.1185 18.5591 18.8755 20.9783 16.4844C23.3975 14.0933 26.6787 12.75 30.1 12.75C33.5213 12.75 36.8025 14.0933 39.2217 16.4844C41.6409 18.8755 43 22.1185 43 25.5C43 28.8815 41.6409 32.1245 39.2217 34.5156C36.8025 36.9067 33.5213 38.25 30.1 38.25C26.6787 38.25 23.3975 36.9067 20.9783 34.5156C18.5591 32.1245 17.2 28.8815 17.2 25.5ZM25.5506 42.5C22.8426 42.4991 20.2029 43.3404 18.0057 44.9049C15.8085 46.4694 14.1651 48.6777 13.3085 51.2168L13.1193 51.782L13.1021 51.833C12.9215 52.3685 12.8656 52.5428 12.9215 52.6618C12.9473 52.717 13.0075 52.7595 13.0849 52.8275C13.2225 52.9338 13.4289 53.0995 13.7127 53.4862C14.1111 54.0322 14.635 54.4768 15.2413 54.7834C15.8476 55.0901 16.5189 55.25 17.2 55.25H43C43.6811 55.25 44.3524 55.0901 44.9587 54.7834C45.565 54.4768 46.0889 54.0322 46.4873 53.4862C46.6614 53.2363 46.8731 53.0142 47.1151 52.8275C47.1968 52.7595 47.2484 52.717 47.2785 52.6575C47.3387 52.5427 47.2785 52.3685 47.0979 51.833L47.0807 51.782L46.8915 51.2168C46.0351 48.6784 44.3924 46.4706 42.196 44.9062C39.9997 43.3417 37.361 42.5 34.6537 42.5H25.5506Z" fill="#0C012A"/>
</svg>
