<svg width="430" height="430" viewBox="0 0 430 430" fill="none" xmlns="http://www.w3.org/2000/svg">
<g filter="url(#filter0_d_548_1148)">
<rect x="15" y="15" width="400" height="400" rx="200" fill="white"/>
</g>
<path d="M138.793 287.053V198.247C138.793 195.123 139.494 192.163 140.895 189.367C142.296 186.571 144.227 184.269 146.687 182.46L205.89 138.057C209.344 135.426 213.291 134.11 217.731 134.11C222.171 134.11 226.118 135.426 229.572 138.057L288.775 182.46C291.242 184.269 293.176 186.571 294.577 189.367C295.978 192.163 296.676 195.123 296.669 198.247V287.053C296.669 292.48 294.735 297.127 290.867 300.995C286.999 304.863 282.355 306.794 276.935 306.787H247.333C244.537 306.787 242.195 305.84 240.307 303.946C238.419 302.051 237.472 299.709 237.466 296.92V247.584C237.466 244.788 236.518 242.446 234.624 240.558C232.729 238.67 230.387 237.723 227.598 237.717H207.864C205.068 237.717 202.726 238.664 200.838 240.558C198.95 242.453 198.003 244.795 197.996 247.584V296.92C197.996 299.716 197.049 302.061 195.155 303.955C193.26 305.85 190.918 306.794 188.129 306.787H158.527C153.1 306.787 148.456 304.857 144.595 300.995C140.734 297.134 138.8 292.486 138.793 287.053Z" fill="#1651BE"/>
<defs>
<filter id="filter0_d_548_1148" x="0" y="0" width="430" height="430" filterUnits="userSpaceOnUse" color-interpolation-filters="sRGB">
<feFlood flood-opacity="0" result="BackgroundImageFix"/>
<feColorMatrix in="SourceAlpha" type="matrix" values="0 0 0 0 0 0 0 0 0 0 0 0 0 0 0 0 0 0 127 0" result="hardAlpha"/>
<feOffset/>
<feGaussianBlur stdDeviation="7.5"/>
<feComposite in2="hardAlpha" operator="out"/>
<feColorMatrix type="matrix" values="0 0 0 0 0 0 0 0 0 0 0 0 0 0 0 0 0 0 0.15 0"/>
<feBlend mode="normal" in2="BackgroundImageFix" result="effect1_dropShadow_548_1148"/>
<feBlend mode="normal" in="SourceGraphic" in2="effect1_dropShadow_548_1148" result="shape"/>
</filter>
</defs>
</svg>
