<svg width="430" height="430" viewBox="0 0 430 430" fill="none" xmlns="http://www.w3.org/2000/svg">
<g filter="url(#filter0_d_548_1144)">
<rect x="15" y="15" width="400" height="400" rx="200" fill="white"/>
</g>
<path d="M198.494 148.254C198.432 146.441 198.734 144.639 199.381 142.954C200.029 141.269 201.01 139.735 202.265 138.444C203.521 137.152 205.026 136.129 206.692 135.434C208.357 134.74 210.15 134.388 211.963 134.4C213.777 134.412 215.574 134.788 217.249 135.504C218.924 136.221 220.443 137.264 221.716 138.572C222.989 139.881 223.99 141.427 224.66 143.121C225.329 144.815 225.655 146.621 225.616 148.433L225.988 204.647C225.988 204.721 226.004 204.795 226.032 204.864C226.061 204.933 226.103 204.996 226.156 205.049C226.209 205.101 226.272 205.144 226.341 205.172C226.41 205.201 226.483 205.216 226.558 205.217L282.771 205.588C284.562 205.585 286.34 205.937 288.004 206.623C289.667 207.309 291.182 208.316 292.462 209.585C293.742 210.855 294.761 212.362 295.461 214.019C296.161 215.677 296.527 217.452 296.539 219.243C296.552 221.034 296.209 222.805 295.531 224.453C294.854 226.102 293.855 227.596 292.592 228.849C291.329 230.102 289.827 231.089 288.173 231.753C286.519 232.418 284.745 232.746 282.954 232.72L226.74 232.348C226.666 232.348 226.592 232.362 226.524 232.39C226.455 232.418 226.393 232.459 226.341 232.511C226.289 232.564 226.248 232.626 226.22 232.694C226.192 232.763 226.178 232.836 226.178 232.911L226.55 289.124C226.576 290.915 226.248 292.689 225.584 294.343C224.92 295.998 223.933 297.5 222.681 298.763C221.428 300.026 219.935 301.026 218.286 301.704C216.638 302.382 214.867 302.725 213.076 302.713C211.285 302.701 209.51 302.335 207.852 301.636C206.194 300.936 204.687 299.917 203.417 298.638C202.148 297.358 201.14 295.843 200.454 294.18C199.768 292.517 199.416 290.739 199.418 288.948L199.047 232.734C199.046 232.66 199.031 232.586 199.002 232.517C198.973 232.449 198.931 232.386 198.878 232.333C198.825 232.28 198.763 232.238 198.694 232.209C198.625 232.18 198.551 232.165 198.477 232.165L142.263 231.793C138.684 231.741 135.252 230.276 132.715 227.719C130.177 225.162 128.74 221.719 128.716 218.14C128.692 214.561 130.083 211.136 132.586 208.612C135.09 206.087 138.502 204.667 142.081 204.661L198.294 205.033C198.369 205.034 198.442 205.02 198.511 204.992C198.579 204.964 198.641 204.922 198.694 204.87C198.746 204.818 198.787 204.756 198.815 204.687C198.843 204.619 198.857 204.545 198.857 204.471L198.494 148.254Z" fill="#1651BE"/>
<defs>
<filter id="filter0_d_548_1144" x="0" y="0" width="430" height="430" filterUnits="userSpaceOnUse" color-interpolation-filters="sRGB">
<feFlood flood-opacity="0" result="BackgroundImageFix"/>
<feColorMatrix in="SourceAlpha" type="matrix" values="0 0 0 0 0 0 0 0 0 0 0 0 0 0 0 0 0 0 127 0" result="hardAlpha"/>
<feOffset/>
<feGaussianBlur stdDeviation="7.5"/>
<feComposite in2="hardAlpha" operator="out"/>
<feColorMatrix type="matrix" values="0 0 0 0 0 0 0 0 0 0 0 0 0 0 0 0 0 0 0.15 0"/>
<feBlend mode="normal" in2="BackgroundImageFix" result="effect1_dropShadow_548_1144"/>
<feBlend mode="normal" in="SourceGraphic" in2="effect1_dropShadow_548_1144" result="shape"/>
</filter>
</defs>
</svg>
