<svg width="81" height="81" viewBox="0 0 81 81" fill="none" xmlns="http://www.w3.org/2000/svg">
<path fill-rule="evenodd" clip-rule="evenodd" d="M27 23.625C27 20.0446 28.4223 16.6108 30.9541 14.0791C33.4858 11.5473 36.9196 10.125 40.5 10.125C44.0804 10.125 47.5142 11.5473 50.0459 14.0791C52.5777 16.6108 54 20.0446 54 23.625C54 27.2054 52.5777 30.6392 50.0459 33.1709C47.5142 35.7027 44.0804 37.125 40.5 37.125C36.9196 37.125 33.4858 35.7027 30.9541 33.1709C28.4223 30.6392 27 27.2054 27 23.625ZM27 43.875C22.5245 43.875 18.2322 45.6529 15.0676 48.8176C11.9029 51.9822 10.125 56.2745 10.125 60.75C10.125 63.4353 11.1917 66.0107 13.0905 67.9095C14.9893 69.8083 17.5647 70.875 20.25 70.875H60.75C63.4353 70.875 66.0107 69.8083 67.9095 67.9095C69.8083 66.0107 70.875 63.4353 70.875 60.75C70.875 56.2745 69.0971 51.9822 65.9324 48.8176C62.7678 45.6529 58.4755 43.875 54 43.875H27Z" fill="black"/>
</svg>
