<svg width="659" height="659" viewBox="0 0 659 659" fill="none" xmlns="http://www.w3.org/2000/svg">
<circle cx="329.5" cy="329.5" r="329.5" fill="white"/>
<path d="M154.638 408H111.375L119.241 278.625H173.268L189.414 344.451H190.863L207.009 278.625H261.036L268.902 408H225.639L223.155 345.279H221.706L205.974 408H174.303L158.364 345.279H157.122L154.638 408ZM282.056 281.109L278.123 258.132C287.645 255.786 296.891 254.613 305.861 254.613C314.969 254.613 321.248 254.889 324.698 255.441C328.148 255.993 331.529 257.097 334.841 258.753C341.465 261.927 344.777 269.379 344.777 281.109C344.777 289.251 342.638 294.978 338.36 298.29C334.082 301.602 324.146 305.88 308.552 311.124V314.229H343.535V336.999H276.881V320.025C276.881 312.297 278.537 306.846 281.849 303.672C283.229 302.154 284.264 300.981 284.954 300.153C285.782 299.325 287.3 298.29 289.508 297.048C291.854 295.806 293.51 294.978 294.476 294.564C295.442 294.012 297.443 293.046 300.479 291.666L315.176 285.042V278.418C312.14 278.142 308.207 278.004 303.377 278.004C298.547 278.004 291.44 279.039 282.056 281.109ZM440.906 359.148H399.506V374.88H450.221V408H358.106V278.625H449.186L444.011 311.745H399.506V329.133H440.906V359.148ZM498.716 278.625L510.101 324.165H511.55L523.142 278.625H568.889L531.629 372.81V408H490.229V372.81L452.969 278.625H498.716Z" fill="#77B9D6"/>
</svg>
