<svg width="93" height="93" viewBox="0 0 93 93" fill="none" xmlns="http://www.w3.org/2000/svg">
<path d="M52.3125 62C52.3125 63.5416 51.7001 65.02 50.6101 66.1101C49.52 67.2001 48.0416 67.8125 46.5 67.8125C44.9584 67.8125 43.48 67.2001 42.3899 66.1101C41.2999 65.02 40.6875 63.5416 40.6875 62C40.6875 60.4584 41.2999 58.98 42.3899 57.8899C43.48 56.7999 44.9584 56.1875 46.5 56.1875C48.0416 56.1875 49.52 56.7999 50.6101 57.8899C51.7001 58.98 52.3125 60.4584 52.3125 62Z" fill="#2D4267"/>
<path d="M55.5946 2.5575L67.9171 19.8245L76.043 17.0539L83.4598 38.75H87.1875V85.25H5.8125V38.75H7.78875V38.7112L10.2997 38.7345L55.5946 2.5575ZM36.4134 38.75H75.2719L71.2535 26.9971L65.3557 28.8842L36.4134 38.75ZM30.3761 32.6159L60.2563 22.4362L54.0408 13.7175L30.3761 32.6159ZM21.3125 46.5H13.5625V54.25C15.6179 54.25 17.5892 53.4335 19.0426 51.9801C20.496 50.5267 21.3125 48.5554 21.3125 46.5ZM60.0625 62C60.0625 60.2189 59.7117 58.4553 59.0301 56.8098C58.3485 55.1644 57.3495 53.6693 56.0901 52.4099C54.8307 51.1505 53.3356 50.1515 51.6901 49.4699C50.0447 48.7883 48.2811 48.4375 46.5 48.4375C44.7189 48.4375 42.9553 48.7883 41.3099 49.4699C39.6644 50.1515 38.1693 51.1505 36.9099 52.4099C35.6505 53.6693 34.6515 55.1644 33.9699 56.8098C33.2883 58.4553 32.9375 60.2189 32.9375 62C32.9375 65.597 34.3664 69.0467 36.9099 71.5901C39.4533 74.1336 42.903 75.5625 46.5 75.5625C50.097 75.5625 53.5467 74.1336 56.0901 71.5901C58.6336 69.0467 60.0625 65.597 60.0625 62ZM79.4375 77.5V69.75C77.3821 69.75 75.4108 70.5665 73.9574 72.0199C72.504 73.4733 71.6875 75.4446 71.6875 77.5H79.4375ZM71.6875 46.5C71.6875 48.5554 72.504 50.5267 73.9574 51.9801C75.4108 53.4335 77.3821 54.25 79.4375 54.25V46.5H71.6875ZM13.5625 77.5H21.3125C21.3125 75.4446 20.496 73.4733 19.0426 72.0199C17.5892 70.5665 15.6179 69.75 13.5625 69.75V77.5Z" fill="#2D4267"/>
</svg>
