<svg width="93" height="93" viewBox="0 0 93 93" fill="none" xmlns="http://www.w3.org/2000/svg">
<path d="M41.0205 8.13745C42.3922 6.76753 44.2275 5.96145 46.1644 5.87824C48.1012 5.79503 49.9989 6.44073 51.483 7.68795L51.979 8.14132L59.3415 15.4999H69.7498C71.7043 15.5003 73.5866 16.2392 75.0194 17.5686C76.4523 18.8979 77.3299 20.7196 77.4765 22.6687L77.4998 23.2499V33.6582L84.8623 41.0207C86.2333 42.3926 87.04 44.2287 87.1232 46.1664C87.2065 48.1042 86.5601 50.0027 85.3118 51.4871L84.8584 51.9792L77.4959 59.3417V69.7499C77.4965 71.7052 76.7581 73.5884 75.4286 75.0221C74.0991 76.4557 72.2769 77.3339 70.3271 77.4806L69.7498 77.4999H59.3454L51.9829 84.8624C50.611 86.2334 48.7749 87.0402 46.8372 87.1234C44.8994 87.2066 43.0009 86.5603 41.5165 85.3119L41.0244 84.8624L33.6619 77.4999H23.2498C21.2945 77.5006 19.4113 76.7621 17.9776 75.4326C16.544 74.1032 15.6658 72.2809 15.5191 70.3312L15.4998 69.7499V59.3417L8.13726 51.9792C6.76627 50.6073 5.9595 48.7712 5.87628 46.8335C5.79306 44.8957 6.43944 42.9972 7.68776 41.5128L8.13726 41.0207L15.4998 33.6582V23.2499C15.5001 21.2954 16.239 19.4131 17.5684 17.9803C18.8978 16.5474 20.7195 15.6698 22.6685 15.5232L23.2498 15.4999H33.658L41.0205 8.13745ZM46.4998 13.6244L39.1373 20.9869C37.8501 22.2721 36.1519 23.0636 34.34 23.2228L33.658 23.2499H23.2498V33.6582C23.2502 35.479 22.6096 37.2419 21.4401 38.6376L20.979 39.1413L13.6165 46.5038L20.979 53.8624C22.2656 55.149 23.0585 56.8473 23.2188 58.6597L23.2498 59.3417V69.7499H33.658C35.4789 69.7495 37.2417 70.3901 38.6374 71.5596L39.1411 72.0207L46.4998 79.3832L53.8623 72.0207C55.1488 70.7341 56.8471 69.9412 58.6595 69.7809L59.3415 69.7499H69.7498V59.3417C69.7493 57.5209 70.39 55.758 71.5594 54.3623L72.0205 53.8586L79.383 46.4999L72.0205 39.1374C70.7339 37.8509 69.9411 36.1526 69.7808 34.3402L69.7498 33.6582V23.2499H59.3415C57.5207 23.2504 55.7578 22.6097 54.3621 21.4403L53.8584 20.9792L46.4959 13.6167L46.4998 13.6244ZM58.4348 34.8129C59.1321 34.118 60.0678 33.7145 61.0519 33.6844C62.0359 33.6544 62.9945 34 63.733 34.6512C64.4714 35.3023 64.9343 36.2101 65.0277 37.1902C65.121 38.1702 64.8379 39.1491 64.2356 39.9279L63.9101 40.2922L45.0001 59.2022C44.2618 59.9414 43.2778 60.3838 42.2348 60.4452C41.1918 60.5067 40.1626 60.1829 39.3426 59.5354L38.9706 59.2061L29.6551 49.8906C28.9528 49.1948 28.5429 48.257 28.5094 47.2689C28.4758 46.2809 28.8212 45.3174 29.4748 44.5757C30.1284 43.834 31.0408 43.3701 32.0252 43.279C33.0096 43.188 33.9916 43.4766 34.7701 44.0858L35.1344 44.4074L41.9854 51.2584L58.4348 34.8129Z" fill="#2D4267"/>
</svg>
