<svg width="93" height="93" viewBox="0 0 93 93" fill="none" xmlns="http://www.w3.org/2000/svg">
<path fill-rule="evenodd" clip-rule="evenodd" d="M31 27.125C31 23.0141 32.633 19.0717 35.5398 16.1648C38.4467 13.258 42.3891 11.625 46.5 11.625C50.6109 11.625 54.5533 13.258 57.4602 16.1648C60.367 19.0717 62 23.0141 62 27.125C62 31.2359 60.367 35.1783 57.4602 38.0852C54.5533 40.992 50.6109 42.625 46.5 42.625C42.3891 42.625 38.4467 40.992 35.5398 38.0852C32.633 35.1783 31 31.2359 31 27.125ZM31 50.375C25.8614 50.375 20.9333 52.4163 17.2998 56.0498C13.6663 59.6833 11.625 64.6114 11.625 69.75C11.625 72.8331 12.8498 75.79 15.0299 77.9701C17.21 80.1502 20.1669 81.375 23.25 81.375H69.75C72.8331 81.375 75.79 80.1502 77.9701 77.9701C80.1502 75.79 81.375 72.8331 81.375 69.75C81.375 64.6114 79.3337 59.6833 75.7002 56.0498C72.0667 52.4163 67.1386 50.375 62 50.375H31Z" fill="#2D4267"/>
</svg>
